SplineFontDB: 3.2
FontName: ezz456chs-pixel
FullName: ezz456CH's Pixel Regular
FamilyName: ezz456CH's Pixel
Weight: Regular
Copyright: Copyright (c) 2026 ezz456CH
Version: 1.2
ItalicAngle: 0
UnderlinePosition: 77
UnderlineWidth: 51
Ascent: 896
Descent: 256
InvalidEm: 0
sfntRevision: 0x00013333
LayerCount: 2
Layer: 0 1 "Back" 1
Layer: 1 1 "Fore" 0
XUID: [1021 270 1860402791 5469]
StyleMap: 0x0040
FSType: 4
OS2Version: 2
OS2_WeightWidthSlopeOnly: 0
OS2_UseTypoMetrics: 0
CreationTime: 3978121
ModificationTime: 1769715922
PfmFamily: 81
TTFWeight: 400
TTFWidth: 5
LineGap: 0
VLineGap: 0
Panose: 0 0 4 0 0 0 0 0 0 0
OS2TypoAscent: 896
OS2TypoAOffset: 0
OS2TypoDescent: -256
OS2TypoDOffset: 0
OS2TypoLinegap: 0
OS2WinAscent: 896
OS2WinAOffset: 0
OS2WinDescent: 256
OS2WinDOffset: 0
HheadAscent: 896
HheadAOffset: 0
HheadDescent: -256
HheadDOffset: 0
OS2SubXSize: 512
OS2SubYSize: 512
OS2SubXOff: 0
OS2SubYOff: -128
OS2SupXSize: 512
OS2SupYSize: 512
OS2SupXOff: 0
OS2SupYOff: 512
OS2StrikeYSize: 51
OS2StrikeYPos: 204
OS2CapHeight: 896
OS2XHeight: 512
OS2Vendor: 'TREE'
OS2CodePages: 200101ff.cdff0000
OS2UnicodeRanges: 00000001.00000000.00000000.00000000
Lookup: 260 0 0 "'mark' Mark Positioning lookup 0" { "'mark' Mark Positioning lookup 0 subtable"  } ['mark' ('DFLT' <'dflt' > ) ]
MarkAttachClasses: 1
DEI: 91125
ShortTable: maxp 16
  1
  0
  104
  72
  18
  0
  0
  2
  0
  0
  0
  0
  0
  0
  0
  0
EndShort

StartChar: .notdef
Encoding: 65536 -1 0
Width: 640
VWidth: 1024
GlyphClass: 1
Flags: W
LayerCount: 2
Fore
SplineSet
448 383 m 1,0,-1
 448 639 l 1,1,-1
 320 639 l 1,2,-1
 192 639 l 1,3,-1
 192 383 l 1,4,-1
 192 127 l 1,5,-1
 320 127 l 1,6,-1
 448 127 l 1,7,-1
 448 383 l 1,0,-1
64 384 m 1,8,-1
 64 767 l 1,9,-1
 320 767 l 1,10,-1
 576 767 l 1,11,-1
 576 384 l 1,12,-1
 576 0 l 1,13,-1
 320 0 l 1,14,-1
 64 0 l 1,15,-1
 64 384 l 1,8,-1
EndSplineSet
EndChar

StartChar: exclam
Encoding: 33 33 4
Width: 256
VWidth: 1024
GlyphClass: 1
Flags: W
LayerCount: 2
Fore
SplineSet
64 128 m 1,0,-1
 192 128 l 1,1,-1
 192 0 l 1,2,-1
 64 0 l 1,3,-1
 64 128 l 1,0,-1
64 768 m 1,4,-1
 192 768 l 1,5,-1
 192 640 l 1,6,-1
 192 512 l 1,7,-1
 192 384 l 1,8,-1
 192 256 l 1,9,-1
 64 256 l 1,10,-1
 64 384 l 1,11,-1
 64 512 l 1,12,-1
 64 640 l 1,13,-1
 64 768 l 1,4,-1
EndSplineSet
EndChar

StartChar: quotedbl
Encoding: 34 34 5
Width: 512
VWidth: 1024
GlyphClass: 1
Flags: W
LayerCount: 2
Fore
SplineSet
320 768 m 1,0,-1
 448 768 l 1,1,-1
 448 640 l 1,2,-1
 448 512 l 1,3,-1
 320 512 l 1,4,-1
 320 640 l 1,5,-1
 320 768 l 1,0,-1
64 768 m 1,6,-1
 192 768 l 1,7,-1
 192 640 l 1,8,-1
 192 512 l 1,9,-1
 64 512 l 1,10,-1
 64 640 l 1,11,-1
 64 768 l 1,6,-1
EndSplineSet
EndChar

StartChar: numbersign
Encoding: 35 35 6
Width: 768
VWidth: 1024
GlyphClass: 1
Flags: W
LayerCount: 2
Fore
SplineSet
448 768 m 1,0,-1
 576 768 l 1,1,-1
 576 640 l 1,2,-1
 704 640 l 1,3,-1
 704 512 l 1,4,-1
 576 512 l 1,5,-1
 576 384 l 1,6,-1
 576 256 l 1,7,-1
 704 256 l 1,8,-1
 704 128 l 1,9,-1
 576 128 l 1,10,-1
 576 0 l 1,11,-1
 448 0 l 1,12,-1
 448 128 l 1,13,-1
 320 128 l 1,14,-1
 320 0 l 1,15,-1
 192 0 l 1,16,-1
 192 128 l 1,17,-1
 64 128 l 1,18,-1
 64 256 l 1,19,-1
 192 256 l 1,20,-1
 192 384 l 1,21,-1
 192 512 l 1,22,-1
 64 512 l 1,23,-1
 64 640 l 1,24,-1
 192 640 l 1,25,-1
 192 768 l 1,26,-1
 320 768 l 1,27,-1
 320 640 l 1,28,-1
 448 640 l 1,29,-1
 448 768 l 1,0,-1
448 256 m 1,30,-1
 448 384 l 1,31,-1
 448 512 l 1,32,-1
 320 512 l 1,33,-1
 320 384 l 1,34,-1
 320 256 l 1,35,-1
 448 256 l 1,30,-1
EndSplineSet
EndChar

StartChar: percent
Encoding: 37 37 7
Width: 512
VWidth: 1024
GlyphClass: 1
Flags: W
LayerCount: 2
Fore
SplineSet
320 128 m 1,0,-1
 448 128 l 1,1,-1
 448 0 l 1,2,-1
 320 0 l 1,3,-1
 320 128 l 1,0,-1
320 768 m 1,4,-1
 448 768 l 1,5,-1
 448 640 l 1,6,-1
 448 512 l 1,7,-1
 320 512 l 1,8,-1
 320 384 l 1,9,-1
 320 256 l 1,10,-1
 192 256 l 1,11,-1
 192 128 l 1,12,-1
 192 0 l 1,13,-1
 64 0 l 1,14,-1
 64 128 l 1,15,-1
 64 256 l 1,16,-1
 192 256 l 1,17,-1
 192 384 l 1,18,-1
 192 512 l 1,19,-1
 320 512 l 1,20,-1
 320 640 l 1,21,-1
 320 768 l 1,4,-1
64 768 m 1,22,-1
 192 768 l 1,23,-1
 192 640 l 1,24,-1
 64 640 l 1,25,-1
 64 768 l 1,22,-1
EndSplineSet
EndChar

StartChar: ampersand
Encoding: 38 38 8
Width: 768
VWidth: 1024
GlyphClass: 1
Flags: W
LayerCount: 2
Fore
SplineSet
64 256 m 1,0,-1
 192 256 l 1,1,-1
 192 128 l 1,2,-1
 320 128 l 1,3,-1
 448 128 l 1,4,-1
 448 0 l 1,5,-1
 320 0 l 1,6,-1
 192 0 l 1,7,-1
 192 128 l 1,8,-1
 64 128 l 1,9,-1
 64 256 l 1,0,-1
448 128 m 1,10,-1
 448 256 l 1,11,-1
 576 256 l 1,12,-1
 576 128 l 1,13,-1
 704 128 l 1,14,-1
 704 0 l 1,15,-1
 576 0 l 1,16,-1
 576 128 l 1,17,-1
 448 128 l 1,10,-1
448 256 m 1,18,-1
 320 256 l 1,19,-1
 320 384 l 1,20,-1
 448 384 l 1,21,-1
 448 256 l 1,18,-1
320 384 m 1,22,-1
 192 384 l 1,23,-1
 192 512 l 1,24,-1
 320 512 l 1,25,-1
 320 384 l 1,22,-1
192 512 m 1,26,-1
 64 512 l 1,27,-1
 64 640 l 1,28,-1
 192 640 l 1,29,-1
 192 512 l 1,26,-1
448 640 m 1,30,-1
 576 640 l 1,31,-1
 576 512 l 1,32,-1
 448 512 l 1,33,-1
 448 640 l 1,30,-1
448 640 m 1,34,-1
 320 640 l 1,35,-1
 192 640 l 1,36,-1
 192 768 l 1,37,-1
 320 768 l 1,38,-1
 448 768 l 1,39,-1
 448 640 l 1,34,-1
EndSplineSet
EndChar

StartChar: quotesingle
Encoding: 39 39 9
Width: 256
VWidth: 1024
GlyphClass: 1
Flags: W
LayerCount: 2
Fore
SplineSet
64 768 m 1,0,-1
 192 768 l 1,1,-1
 192 640 l 1,2,-1
 192 512 l 1,3,-1
 64 512 l 1,4,-1
 64 640 l 1,5,-1
 64 768 l 1,0,-1
EndSplineSet
EndChar

StartChar: parenleft
Encoding: 40 40 10
Width: 384
VWidth: 1024
GlyphClass: 1
Flags: W
LayerCount: 2
Fore
SplineSet
192 768 m 1,0,-1
 320 768 l 1,1,-1
 320 640 l 1,2,-1
 192 640 l 1,3,-1
 192 512 l 1,4,-1
 192 384 l 1,5,-1
 192 256 l 1,6,-1
 192 128 l 1,7,-1
 320 128 l 1,8,-1
 320 0 l 1,9,-1
 192 0 l 1,10,-1
 192 128 l 1,11,-1
 64 128 l 1,12,-1
 64 256 l 1,13,-1
 64 384 l 1,14,-1
 64 512 l 1,15,-1
 64 640 l 1,16,-1
 192 640 l 1,17,-1
 192 768 l 1,0,-1
EndSplineSet
EndChar

StartChar: parenright
Encoding: 41 41 11
Width: 384
VWidth: 1024
GlyphClass: 1
Flags: W
LayerCount: 2
Fore
SplineSet
64 768 m 1,0,-1
 192 768 l 1,1,-1
 192 640 l 1,2,-1
 320 640 l 1,3,-1
 320 512 l 1,4,-1
 320 384 l 1,5,-1
 320 256 l 1,6,-1
 320 128 l 1,7,-1
 192 128 l 1,8,-1
 192 0 l 1,9,-1
 64 0 l 1,10,-1
 64 128 l 1,11,-1
 192 128 l 1,12,-1
 192 256 l 1,13,-1
 192 384 l 1,14,-1
 192 512 l 1,15,-1
 192 640 l 1,16,-1
 64 640 l 1,17,-1
 64 768 l 1,0,-1
EndSplineSet
EndChar

StartChar: asterisk
Encoding: 42 42 12
Width: 512
VWidth: 1024
GlyphClass: 1
Flags: W
LayerCount: 2
Fore
SplineSet
320 768 m 1,0,-1
 448 768 l 1,1,-1
 448 640 l 1,2,-1
 320 640 l 1,3,-1
 320 512 l 1,4,-1
 448 512 l 1,5,-1
 448 384 l 1,6,-1
 320 384 l 1,7,-1
 320 512 l 1,8,-1
 192 512 l 1,9,-1
 192 384 l 1,10,-1
 64 384 l 1,11,-1
 64 512 l 1,12,-1
 192 512 l 1,13,-1
 192 640 l 1,14,-1
 320 640 l 1,15,-1
 320 768 l 1,0,-1
64 768 m 1,16,-1
 192 768 l 1,17,-1
 192 640 l 1,18,-1
 64 640 l 1,19,-1
 64 768 l 1,16,-1
EndSplineSet
EndChar

StartChar: plus
Encoding: 43 43 13
Width: 512
VWidth: 1024
GlyphClass: 1
Flags: W
LayerCount: 2
Fore
SplineSet
192 512 m 1,0,-1
 320 512 l 1,1,-1
 320 384 l 1,2,-1
 448 384 l 1,3,-1
 448 256 l 1,4,-1
 320 256 l 1,5,-1
 320 128 l 1,6,-1
 192 128 l 1,7,-1
 192 256 l 1,8,-1
 64 256 l 1,9,-1
 64 384 l 1,10,-1
 192 384 l 1,11,-1
 192 512 l 1,0,-1
EndSplineSet
EndChar

StartChar: comma
Encoding: 44 44 14
Width: 256
VWidth: 1024
GlyphClass: 1
Flags: W
LayerCount: 2
Fore
SplineSet
64 128 m 1,0,-1
 192 128 l 1,1,-1
 192 0 l 1,2,-1
 192 -128 l 1,3,-1
 64 -128 l 1,4,-1
 64 0 l 1,5,-1
 64 128 l 1,0,-1
EndSplineSet
EndChar

StartChar: hyphen
Encoding: 45 45 15
Width: 512
VWidth: 1024
GlyphClass: 1
Flags: W
LayerCount: 2
Fore
SplineSet
320 256 m 1,0,-1
 192 256 l 1,1,-1
 64 256 l 1,2,-1
 64 384 l 1,3,-1
 192 384 l 1,4,-1
 320 384 l 1,5,-1
 448 384 l 1,6,-1
 448 256 l 1,7,-1
 320 256 l 1,0,-1
EndSplineSet
EndChar

StartChar: period
Encoding: 46 46 16
Width: 256
VWidth: 1024
GlyphClass: 1
Flags: W
LayerCount: 2
Fore
SplineSet
64 128 m 1,0,-1
 192 128 l 1,1,-1
 192 0 l 1,2,-1
 64 0 l 1,3,-1
 64 128 l 1,0,-1
EndSplineSet
EndChar

StartChar: slash
Encoding: 47 47 17
Width: 512
VWidth: 1024
GlyphClass: 1
Flags: W
LayerCount: 2
Fore
SplineSet
320 768 m 1,0,-1
 448 768 l 1,1,-1
 448 640 l 1,2,-1
 448 512 l 1,3,-1
 320 512 l 1,4,-1
 320 384 l 1,5,-1
 320 256 l 1,6,-1
 192 256 l 1,7,-1
 192 128 l 1,8,-1
 192 0 l 1,9,-1
 64 0 l 1,10,-1
 64 128 l 1,11,-1
 64 256 l 1,12,-1
 192 256 l 1,13,-1
 192 384 l 1,14,-1
 192 512 l 1,15,-1
 320 512 l 1,16,-1
 320 640 l 1,17,-1
 320 768 l 1,0,-1
EndSplineSet
EndChar

StartChar: zero
Encoding: 48 48 18
Width: 640
VWidth: 1024
GlyphClass: 1
Flags: W
LayerCount: 2
Fore
SplineSet
320 0 m 1,0,-1
 192 0 l 1,1,-1
 192 128 l 1,2,-1
 320 128 l 1,3,-1
 448 128 l 1,4,-1
 448 0 l 1,5,-1
 320 0 l 1,0,-1
448 128 m 1,6,-1
 448 256 l 1,7,-1
 448 384 l 1,8,-1
 448 512 l 1,9,-1
 448 640 l 1,10,-1
 576 640 l 1,11,-1
 576 512 l 1,12,-1
 576 384 l 1,13,-1
 576 256 l 1,14,-1
 576 128 l 1,15,-1
 448 128 l 1,6,-1
192 128 m 1,16,-1
 64 128 l 1,17,-1
 64 256 l 1,18,-1
 64 384 l 1,19,-1
 64 512 l 1,20,-1
 64 640 l 1,21,-1
 192 640 l 1,22,-1
 192 512 l 1,23,-1
 192 384 l 1,24,-1
 192 256 l 1,25,-1
 192 128 l 1,16,-1
448 640 m 1,26,-1
 320 640 l 1,27,-1
 192 640 l 1,28,-1
 192 768 l 1,29,-1
 320 768 l 1,30,-1
 448 768 l 1,31,-1
 448 640 l 1,26,-1
EndSplineSet
EndChar

StartChar: one
Encoding: 49 49 19
Width: 384
VWidth: 1024
GlyphClass: 1
Flags: W
LayerCount: 2
Fore
SplineSet
192 128 m 1,0,-1
 192 256 l 1,1,-1
 192 384 l 1,2,-1
 192 512 l 1,3,-1
 192 640 l 1,4,-1
 64 640 l 1,5,-1
 64 768 l 1,6,-1
 192 768 l 1,7,-1
 320 768 l 1,8,-1
 320 640 l 1,9,-1
 320 512 l 1,10,-1
 320 384 l 1,11,-1
 320 256 l 1,12,-1
 320 128 l 1,13,-1
 320 0 l 1,14,-1
 192 0 l 1,15,-1
 192 128 l 1,0,-1
EndSplineSet
EndChar

StartChar: two
Encoding: 50 50 20
Width: 640
VWidth: 1024
GlyphClass: 1
Flags: W
LayerCount: 2
Fore
SplineSet
448 0 m 1,0,-1
 320 0 l 1,1,-1
 192 0 l 1,2,-1
 64 0 l 1,3,-1
 64 128 l 1,4,-1
 64 256 l 1,5,-1
 192 256 l 1,6,-1
 192 128 l 1,7,-1
 320 128 l 1,8,-1
 448 128 l 1,9,-1
 576 128 l 1,10,-1
 576 0 l 1,11,-1
 448 0 l 1,0,-1
192 256 m 1,12,-1
 192 384 l 1,13,-1
 320 384 l 1,14,-1
 448 384 l 1,15,-1
 448 256 l 1,16,-1
 320 256 l 1,17,-1
 192 256 l 1,12,-1
448 384 m 1,18,-1
 448 512 l 1,19,-1
 448 640 l 1,20,-1
 576 640 l 1,21,-1
 576 512 l 1,22,-1
 576 384 l 1,23,-1
 448 384 l 1,18,-1
448 640 m 1,24,-1
 320 640 l 1,25,-1
 192 640 l 1,26,-1
 192 512 l 1,27,-1
 64 512 l 1,28,-1
 64 640 l 1,29,-1
 192 640 l 1,30,-1
 192 768 l 1,31,-1
 320 768 l 1,32,-1
 448 768 l 1,33,-1
 448 640 l 1,24,-1
EndSplineSet
EndChar

StartChar: three
Encoding: 51 51 21
Width: 640
VWidth: 1024
GlyphClass: 1
Flags: W
LayerCount: 2
Fore
SplineSet
64 256 m 1,0,-1
 192 256 l 1,1,-1
 192 128 l 1,2,-1
 320 128 l 1,3,-1
 448 128 l 1,4,-1
 448 0 l 1,5,-1
 320 0 l 1,6,-1
 192 0 l 1,7,-1
 192 128 l 1,8,-1
 64 128 l 1,9,-1
 64 256 l 1,0,-1
448 128 m 1,10,-1
 448 256 l 1,11,-1
 576 256 l 1,12,-1
 576 128 l 1,13,-1
 448 128 l 1,10,-1
448 256 m 1,14,-1
 320 256 l 1,15,-1
 320 384 l 1,16,-1
 448 384 l 1,17,-1
 448 256 l 1,14,-1
448 384 m 1,18,-1
 448 512 l 1,19,-1
 448 640 l 1,20,-1
 576 640 l 1,21,-1
 576 512 l 1,22,-1
 576 384 l 1,23,-1
 448 384 l 1,18,-1
448 640 m 1,24,-1
 320 640 l 1,25,-1
 192 640 l 1,26,-1
 192 512 l 1,27,-1
 64 512 l 1,28,-1
 64 640 l 1,29,-1
 192 640 l 1,30,-1
 192 768 l 1,31,-1
 320 768 l 1,32,-1
 448 768 l 1,33,-1
 448 640 l 1,24,-1
EndSplineSet
EndChar

StartChar: four
Encoding: 52 52 22
Width: 640
VWidth: 1024
GlyphClass: 1
Flags: W
LayerCount: 2
Fore
SplineSet
576 128 m 1,0,-1
 576 0 l 1,1,-1
 448 0 l 1,2,-1
 448 128 l 1,3,-1
 320 128 l 1,4,-1
 192 128 l 1,5,-1
 64 128 l 1,6,-1
 64 256 l 1,7,-1
 64 384 l 1,8,-1
 64 512 l 1,9,-1
 192 512 l 1,10,-1
 192 640 l 1,11,-1
 320 640 l 1,12,-1
 320 768 l 1,13,-1
 448 768 l 1,14,-1
 576 768 l 1,15,-1
 576 640 l 1,16,-1
 576 512 l 1,17,-1
 576 384 l 1,18,-1
 576 256 l 1,19,-1
 576 128 l 1,0,-1
320 640 m 1,20,-1
 320 512 l 1,21,-1
 192 512 l 1,22,-1
 192 384 l 1,23,-1
 192 256 l 1,24,-1
 320 256 l 1,25,-1
 448 256 l 1,26,-1
 448 384 l 1,27,-1
 448 512 l 1,28,-1
 448 640 l 1,29,-1
 320 640 l 1,20,-1
EndSplineSet
EndChar

StartChar: five
Encoding: 53 53 23
Width: 640
VWidth: 1024
GlyphClass: 1
Flags: W
LayerCount: 2
Fore
SplineSet
64 256 m 1,0,-1
 192 256 l 1,1,-1
 192 128 l 1,2,-1
 320 128 l 1,3,-1
 448 128 l 1,4,-1
 448 0 l 1,5,-1
 320 0 l 1,6,-1
 192 0 l 1,7,-1
 192 128 l 1,8,-1
 64 128 l 1,9,-1
 64 256 l 1,0,-1
448 128 m 1,10,-1
 448 256 l 1,11,-1
 448 384 l 1,12,-1
 320 384 l 1,13,-1
 192 384 l 1,14,-1
 64 384 l 1,15,-1
 64 512 l 1,16,-1
 64 640 l 1,17,-1
 64 768 l 1,18,-1
 192 768 l 1,19,-1
 320 768 l 1,20,-1
 448 768 l 1,21,-1
 576 768 l 1,22,-1
 576 640 l 1,23,-1
 448 640 l 1,24,-1
 320 640 l 1,25,-1
 192 640 l 1,26,-1
 192 512 l 1,27,-1
 320 512 l 1,28,-1
 448 512 l 1,29,-1
 576 512 l 1,30,-1
 576 384 l 1,31,-1
 576 256 l 1,32,-1
 576 128 l 1,33,-1
 448 128 l 1,10,-1
EndSplineSet
EndChar

StartChar: six
Encoding: 54 54 24
Width: 640
VWidth: 1024
GlyphClass: 1
Flags: W
LayerCount: 2
Fore
SplineSet
320 0 m 1,0,-1
 192 0 l 1,1,-1
 192 128 l 1,2,-1
 320 128 l 1,3,-1
 448 128 l 1,4,-1
 448 0 l 1,5,-1
 320 0 l 1,0,-1
448 128 m 1,6,-1
 448 256 l 1,7,-1
 448 384 l 1,8,-1
 576 384 l 1,9,-1
 576 256 l 1,10,-1
 576 128 l 1,11,-1
 448 128 l 1,6,-1
192 128 m 1,12,-1
 64 128 l 1,13,-1
 64 256 l 1,14,-1
 64 384 l 1,15,-1
 64 512 l 1,16,-1
 64 640 l 1,17,-1
 192 640 l 1,18,-1
 192 512 l 1,19,-1
 320 512 l 1,20,-1
 448 512 l 1,21,-1
 448 384 l 1,22,-1
 320 384 l 1,23,-1
 192 384 l 1,24,-1
 192 256 l 1,25,-1
 192 128 l 1,12,-1
192 640 m 1,26,-1
 192 768 l 1,27,-1
 320 768 l 1,28,-1
 448 768 l 1,29,-1
 448 640 l 1,30,-1
 320 640 l 1,31,-1
 192 640 l 1,26,-1
EndSplineSet
EndChar

StartChar: seven
Encoding: 55 55 25
Width: 640
VWidth: 1024
GlyphClass: 1
Flags: W
LayerCount: 2
Fore
SplineSet
320 128 m 1,0,-1
 320 0 l 1,1,-1
 192 0 l 1,2,-1
 192 128 l 1,3,-1
 320 128 l 1,0,-1
320 128 m 1,4,-1
 320 256 l 1,5,-1
 320 384 l 1,6,-1
 448 384 l 1,7,-1
 448 256 l 1,8,-1
 448 128 l 1,9,-1
 320 128 l 1,4,-1
448 384 m 1,10,-1
 448 512 l 1,11,-1
 448 640 l 1,12,-1
 320 640 l 1,13,-1
 192 640 l 1,14,-1
 192 512 l 1,15,-1
 64 512 l 1,16,-1
 64 640 l 1,17,-1
 64 768 l 1,18,-1
 192 768 l 1,19,-1
 320 768 l 1,20,-1
 448 768 l 1,21,-1
 576 768 l 1,22,-1
 576 640 l 1,23,-1
 576 512 l 1,24,-1
 576 384 l 1,25,-1
 448 384 l 1,10,-1
EndSplineSet
EndChar

StartChar: eight
Encoding: 56 56 26
Width: 640
VWidth: 1024
GlyphClass: 1
Flags: W
LayerCount: 2
Fore
SplineSet
320 0 m 1,0,-1
 192 0 l 1,1,-1
 192 128 l 1,2,-1
 320 128 l 1,3,-1
 448 128 l 1,4,-1
 448 0 l 1,5,-1
 320 0 l 1,0,-1
448 128 m 1,6,-1
 448 256 l 1,7,-1
 576 256 l 1,8,-1
 576 128 l 1,9,-1
 448 128 l 1,6,-1
192 128 m 1,10,-1
 64 128 l 1,11,-1
 64 256 l 1,12,-1
 192 256 l 1,13,-1
 192 128 l 1,10,-1
448 256 m 1,14,-1
 320 256 l 1,15,-1
 192 256 l 1,16,-1
 192 384 l 1,17,-1
 320 384 l 1,18,-1
 448 384 l 1,19,-1
 448 256 l 1,14,-1
448 384 m 1,20,-1
 448 512 l 1,21,-1
 448 640 l 1,22,-1
 576 640 l 1,23,-1
 576 512 l 1,24,-1
 576 384 l 1,25,-1
 448 384 l 1,20,-1
192 384 m 1,26,-1
 64 384 l 1,27,-1
 64 512 l 1,28,-1
 64 640 l 1,29,-1
 192 640 l 1,30,-1
 192 512 l 1,31,-1
 192 384 l 1,26,-1
448 640 m 1,32,-1
 320 640 l 1,33,-1
 192 640 l 1,34,-1
 192 768 l 1,35,-1
 320 768 l 1,36,-1
 448 768 l 1,37,-1
 448 640 l 1,32,-1
EndSplineSet
EndChar

StartChar: nine
Encoding: 57 57 27
Width: 640
VWidth: 1024
GlyphClass: 1
Flags: W
LayerCount: 2
Fore
SplineSet
320 0 m 1,0,-1
 192 0 l 1,1,-1
 192 128 l 1,2,-1
 320 128 l 1,3,-1
 448 128 l 1,4,-1
 448 0 l 1,5,-1
 320 0 l 1,0,-1
448 128 m 1,6,-1
 448 256 l 1,7,-1
 320 256 l 1,8,-1
 192 256 l 1,9,-1
 192 384 l 1,10,-1
 320 384 l 1,11,-1
 448 384 l 1,12,-1
 448 512 l 1,13,-1
 448 640 l 1,14,-1
 576 640 l 1,15,-1
 576 512 l 1,16,-1
 576 384 l 1,17,-1
 576 256 l 1,18,-1
 576 128 l 1,19,-1
 448 128 l 1,6,-1
192 384 m 1,20,-1
 64 384 l 1,21,-1
 64 512 l 1,22,-1
 64 640 l 1,23,-1
 192 640 l 1,24,-1
 192 512 l 1,25,-1
 192 384 l 1,20,-1
448 640 m 1,26,-1
 320 640 l 1,27,-1
 192 640 l 1,28,-1
 192 768 l 1,29,-1
 320 768 l 1,30,-1
 448 768 l 1,31,-1
 448 640 l 1,26,-1
EndSplineSet
EndChar

StartChar: colon
Encoding: 58 58 28
Width: 256
VWidth: 1024
GlyphClass: 1
Flags: W
LayerCount: 2
Fore
SplineSet
64 128 m 1,0,-1
 192 128 l 1,1,-1
 192 0 l 1,2,-1
 64 0 l 1,3,-1
 64 128 l 1,0,-1
64 512 m 1,4,-1
 192 512 l 1,5,-1
 192 384 l 1,6,-1
 64 384 l 1,7,-1
 64 512 l 1,4,-1
EndSplineSet
EndChar

StartChar: semicolon
Encoding: 59 59 29
Width: 256
VWidth: 1024
GlyphClass: 1
Flags: W
LayerCount: 2
Fore
SplineSet
64 128 m 1,0,-1
 192 128 l 1,1,-1
 192 0 l 1,2,-1
 192 -128 l 1,3,-1
 64 -128 l 1,4,-1
 64 0 l 1,5,-1
 64 128 l 1,0,-1
64 512 m 1,6,-1
 192 512 l 1,7,-1
 192 384 l 1,8,-1
 64 384 l 1,9,-1
 64 512 l 1,6,-1
EndSplineSet
EndChar

StartChar: less
Encoding: 60 60 30
Width: 384
VWidth: 1024
GlyphClass: 1
Flags: W
LayerCount: 2
Fore
SplineSet
192 512 m 1,0,-1
 320 512 l 1,1,-1
 320 384 l 1,2,-1
 192 384 l 1,3,-1
 192 256 l 1,4,-1
 320 256 l 1,5,-1
 320 128 l 1,6,-1
 192 128 l 1,7,-1
 192 256 l 1,8,-1
 64 256 l 1,9,-1
 64 384 l 1,10,-1
 192 384 l 1,11,-1
 192 512 l 1,0,-1
EndSplineSet
EndChar

StartChar: equal
Encoding: 61 61 31
Width: 512
VWidth: 1024
GlyphClass: 1
Flags: W
LayerCount: 2
Fore
SplineSet
320 128 m 1,0,-1
 192 128 l 1,1,-1
 64 128 l 1,2,-1
 64 256 l 1,3,-1
 192 256 l 1,4,-1
 320 256 l 1,5,-1
 448 256 l 1,6,-1
 448 128 l 1,7,-1
 320 128 l 1,0,-1
320 384 m 1,8,-1
 192 384 l 1,9,-1
 64 384 l 1,10,-1
 64 512 l 1,11,-1
 192 512 l 1,12,-1
 320 512 l 1,13,-1
 448 512 l 1,14,-1
 448 384 l 1,15,-1
 320 384 l 1,8,-1
EndSplineSet
EndChar

StartChar: greater
Encoding: 62 62 32
Width: 384
VWidth: 1024
GlyphClass: 1
Flags: W
LayerCount: 2
Fore
SplineSet
64 512 m 1,0,-1
 192 512 l 1,1,-1
 192 384 l 1,2,-1
 320 384 l 1,3,-1
 320 256 l 1,4,-1
 192 256 l 1,5,-1
 192 128 l 1,6,-1
 64 128 l 1,7,-1
 64 256 l 1,8,-1
 192 256 l 1,9,-1
 192 384 l 1,10,-1
 64 384 l 1,11,-1
 64 512 l 1,0,-1
EndSplineSet
EndChar

StartChar: question
Encoding: 63 63 33
Width: 640
VWidth: 1024
GlyphClass: 1
Flags: W
LayerCount: 2
Fore
SplineSet
320 128 m 1,0,-1
 448 128 l 1,1,-1
 448 0 l 1,2,-1
 320 0 l 1,3,-1
 320 128 l 1,0,-1
448 384 m 1,4,-1
 448 256 l 1,5,-1
 320 256 l 1,6,-1
 320 384 l 1,7,-1
 448 384 l 1,4,-1
448 384 m 1,8,-1
 448 512 l 1,9,-1
 448 640 l 1,10,-1
 576 640 l 1,11,-1
 576 512 l 1,12,-1
 576 384 l 1,13,-1
 448 384 l 1,8,-1
448 640 m 1,14,-1
 320 640 l 1,15,-1
 192 640 l 1,16,-1
 192 512 l 1,17,-1
 64 512 l 1,18,-1
 64 640 l 1,19,-1
 192 640 l 1,20,-1
 192 768 l 1,21,-1
 320 768 l 1,22,-1
 448 768 l 1,23,-1
 448 640 l 1,14,-1
EndSplineSet
EndChar

StartChar: at
Encoding: 64 64 34
Width: 768
VWidth: 1024
GlyphClass: 1
Flags: W
LayerCount: 2
Fore
SplineSet
320 512 m 1,0,-1
 448 512 l 1,1,-1
 448 384 l 1,2,-1
 576 384 l 1,3,-1
 576 512 l 1,4,-1
 576 640 l 1,5,-1
 704 640 l 1,6,-1
 704 512 l 1,7,-1
 704 384 l 1,8,-1
 704 256 l 1,9,-1
 576 256 l 1,10,-1
 448 256 l 1,11,-1
 320 256 l 1,12,-1
 320 384 l 1,13,-1
 320 512 l 1,0,-1
320 0 m 1,14,-1
 192 0 l 1,15,-1
 192 128 l 1,16,-1
 320 128 l 1,17,-1
 448 128 l 1,18,-1
 448 0 l 1,19,-1
 320 0 l 1,14,-1
192 128 m 1,20,-1
 64 128 l 1,21,-1
 64 256 l 1,22,-1
 64 384 l 1,23,-1
 64 512 l 1,24,-1
 64 640 l 1,25,-1
 192 640 l 1,26,-1
 192 512 l 1,27,-1
 192 384 l 1,28,-1
 192 256 l 1,29,-1
 192 128 l 1,20,-1
576 640 m 1,30,-1
 448 640 l 1,31,-1
 320 640 l 1,32,-1
 192 640 l 1,33,-1
 192 768 l 1,34,-1
 320 768 l 1,35,-1
 448 768 l 1,36,-1
 576 768 l 1,37,-1
 576 640 l 1,30,-1
EndSplineSet
EndChar

StartChar: A
Encoding: 65 65 35
Width: 640
VWidth: 1024
GlyphClass: 1
Flags: W
LayerCount: 2
Fore
SplineSet
576 128 m 1,0,-1
 576 0 l 1,1,-1
 448 0 l 1,2,-1
 448 128 l 1,3,-1
 320 128 l 1,4,-1
 192 128 l 1,5,-1
 192 0 l 1,6,-1
 64 0 l 1,7,-1
 64 128 l 1,8,-1
 64 256 l 1,9,-1
 64 384 l 1,10,-1
 64 512 l 1,11,-1
 64 640 l 1,12,-1
 192 640 l 1,13,-1
 192 512 l 1,14,-1
 192 384 l 1,15,-1
 192 256 l 1,16,-1
 320 256 l 1,17,-1
 448 256 l 1,18,-1
 448 384 l 1,19,-1
 448 512 l 1,20,-1
 448 640 l 1,21,-1
 576 640 l 1,22,-1
 576 512 l 1,23,-1
 576 384 l 1,24,-1
 576 256 l 1,25,-1
 576 128 l 1,0,-1
448 640 m 1,26,-1
 320 640 l 1,27,-1
 192 640 l 1,28,-1
 192 768 l 1,29,-1
 320 768 l 1,30,-1
 448 768 l 1,31,-1
 448 640 l 1,26,-1
EndSplineSet
EndChar

StartChar: B
Encoding: 66 66 36
Width: 640
VWidth: 1024
GlyphClass: 1
Flags: W
LayerCount: 2
Fore
SplineSet
320 0 m 1,0,-1
 192 0 l 1,1,-1
 64 0 l 1,2,-1
 64 128 l 1,3,-1
 64 256 l 1,4,-1
 64 384 l 1,5,-1
 64 512 l 1,6,-1
 64 640 l 1,7,-1
 64 768 l 1,8,-1
 192 768 l 1,9,-1
 320 768 l 1,10,-1
 448 768 l 1,11,-1
 448 640 l 1,12,-1
 576 640 l 1,13,-1
 576 512 l 1,14,-1
 576 384 l 1,15,-1
 448 384 l 1,16,-1
 448 256 l 1,17,-1
 576 256 l 1,18,-1
 576 128 l 1,19,-1
 448 128 l 1,20,-1
 448 0 l 1,21,-1
 320 0 l 1,0,-1
320 128 m 1,22,-1
 448 128 l 1,23,-1
 448 256 l 1,24,-1
 320 256 l 1,25,-1
 192 256 l 1,26,-1
 192 128 l 1,27,-1
 320 128 l 1,22,-1
320 384 m 1,28,-1
 448 384 l 1,29,-1
 448 512 l 1,30,-1
 448 640 l 1,31,-1
 320 640 l 1,32,-1
 192 640 l 1,33,-1
 192 512 l 1,34,-1
 192 384 l 1,35,-1
 320 384 l 1,28,-1
EndSplineSet
EndChar

StartChar: C
Encoding: 67 67 37
Width: 512
VWidth: 1024
GlyphClass: 1
Flags: W
LayerCount: 2
Fore
SplineSet
320 0 m 1,0,-1
 192 0 l 1,1,-1
 192 128 l 1,2,-1
 320 128 l 1,3,-1
 448 128 l 1,4,-1
 448 0 l 1,5,-1
 320 0 l 1,0,-1
192 128 m 1,6,-1
 64 128 l 1,7,-1
 64 256 l 1,8,-1
 64 384 l 1,9,-1
 64 512 l 1,10,-1
 64 640 l 1,11,-1
 192 640 l 1,12,-1
 192 512 l 1,13,-1
 192 384 l 1,14,-1
 192 256 l 1,15,-1
 192 128 l 1,6,-1
192 640 m 1,16,-1
 192 768 l 1,17,-1
 320 768 l 1,18,-1
 448 768 l 1,19,-1
 448 640 l 1,20,-1
 320 640 l 1,21,-1
 192 640 l 1,16,-1
EndSplineSet
EndChar

StartChar: D
Encoding: 68 68 38
Width: 640
VWidth: 1024
GlyphClass: 1
Flags: W
LayerCount: 2
Fore
SplineSet
320 0 m 1,0,-1
 192 0 l 1,1,-1
 64 0 l 1,2,-1
 64 128 l 1,3,-1
 64 256 l 1,4,-1
 64 384 l 1,5,-1
 64 512 l 1,6,-1
 64 640 l 1,7,-1
 64 768 l 1,8,-1
 192 768 l 1,9,-1
 320 768 l 1,10,-1
 448 768 l 1,11,-1
 448 640 l 1,12,-1
 576 640 l 1,13,-1
 576 512 l 1,14,-1
 576 384 l 1,15,-1
 576 256 l 1,16,-1
 576 128 l 1,17,-1
 448 128 l 1,18,-1
 448 0 l 1,19,-1
 320 0 l 1,0,-1
320 128 m 1,20,-1
 448 128 l 1,21,-1
 448 256 l 1,22,-1
 448 384 l 1,23,-1
 448 512 l 1,24,-1
 448 640 l 1,25,-1
 320 640 l 1,26,-1
 192 640 l 1,27,-1
 192 512 l 1,28,-1
 192 384 l 1,29,-1
 192 256 l 1,30,-1
 192 128 l 1,31,-1
 320 128 l 1,20,-1
EndSplineSet
EndChar

StartChar: E
Encoding: 69 69 39
Width: 640
VWidth: 1024
GlyphClass: 1
Flags: W
LayerCount: 2
Fore
SplineSet
448 0 m 1,0,-1
 320 0 l 1,1,-1
 192 0 l 1,2,-1
 64 0 l 1,3,-1
 64 128 l 1,4,-1
 64 256 l 1,5,-1
 64 384 l 1,6,-1
 64 512 l 1,7,-1
 64 640 l 1,8,-1
 64 768 l 1,9,-1
 192 768 l 1,10,-1
 320 768 l 1,11,-1
 448 768 l 1,12,-1
 576 768 l 1,13,-1
 576 640 l 1,14,-1
 448 640 l 1,15,-1
 320 640 l 1,16,-1
 192 640 l 1,17,-1
 192 512 l 1,18,-1
 192 384 l 1,19,-1
 320 384 l 1,20,-1
 448 384 l 1,21,-1
 448 256 l 1,22,-1
 320 256 l 1,23,-1
 192 256 l 1,24,-1
 192 128 l 1,25,-1
 320 128 l 1,26,-1
 448 128 l 1,27,-1
 576 128 l 1,28,-1
 576 0 l 1,29,-1
 448 0 l 1,0,-1
EndSplineSet
EndChar

StartChar: F
Encoding: 70 70 40
Width: 640
VWidth: 1024
GlyphClass: 1
Flags: W
LayerCount: 2
Fore
SplineSet
64 128 m 1,0,-1
 64 256 l 1,1,-1
 64 384 l 1,2,-1
 64 512 l 1,3,-1
 64 640 l 1,4,-1
 64 768 l 1,5,-1
 192 768 l 1,6,-1
 320 768 l 1,7,-1
 448 768 l 1,8,-1
 576 768 l 1,9,-1
 576 640 l 1,10,-1
 448 640 l 1,11,-1
 320 640 l 1,12,-1
 192 640 l 1,13,-1
 192 512 l 1,14,-1
 192 384 l 1,15,-1
 320 384 l 1,16,-1
 448 384 l 1,17,-1
 448 256 l 1,18,-1
 320 256 l 1,19,-1
 192 256 l 1,20,-1
 192 128 l 1,21,-1
 192 0 l 1,22,-1
 64 0 l 1,23,-1
 64 128 l 1,0,-1
EndSplineSet
EndChar

StartChar: G
Encoding: 71 71 41
Width: 640
VWidth: 1024
GlyphClass: 1
Flags: W
LayerCount: 2
Fore
SplineSet
448 0 m 1,0,-1
 320 0 l 1,1,-1
 192 0 l 1,2,-1
 192 128 l 1,3,-1
 320 128 l 1,4,-1
 448 128 l 1,5,-1
 448 256 l 1,6,-1
 320 256 l 1,7,-1
 320 384 l 1,8,-1
 448 384 l 1,9,-1
 576 384 l 1,10,-1
 576 256 l 1,11,-1
 576 128 l 1,12,-1
 576 0 l 1,13,-1
 448 0 l 1,0,-1
192 128 m 1,14,-1
 64 128 l 1,15,-1
 64 256 l 1,16,-1
 64 384 l 1,17,-1
 64 512 l 1,18,-1
 64 640 l 1,19,-1
 192 640 l 1,20,-1
 192 512 l 1,21,-1
 192 384 l 1,22,-1
 192 256 l 1,23,-1
 192 128 l 1,14,-1
448 640 m 1,24,-1
 320 640 l 1,25,-1
 192 640 l 1,26,-1
 192 768 l 1,27,-1
 320 768 l 1,28,-1
 448 768 l 1,29,-1
 576 768 l 1,30,-1
 576 640 l 1,31,-1
 448 640 l 1,24,-1
EndSplineSet
EndChar

StartChar: H
Encoding: 72 72 42
Width: 640
VWidth: 1024
GlyphClass: 1
Flags: W
LayerCount: 2
Fore
SplineSet
448 768 m 1,0,-1
 576 768 l 1,1,-1
 576 640 l 1,2,-1
 576 512 l 1,3,-1
 576 384 l 1,4,-1
 576 256 l 1,5,-1
 576 128 l 1,6,-1
 576 0 l 1,7,-1
 448 0 l 1,8,-1
 448 128 l 1,9,-1
 448 256 l 1,10,-1
 320 256 l 1,11,-1
 192 256 l 1,12,-1
 192 128 l 1,13,-1
 192 0 l 1,14,-1
 64 0 l 1,15,-1
 64 128 l 1,16,-1
 64 256 l 1,17,-1
 64 384 l 1,18,-1
 64 512 l 1,19,-1
 64 640 l 1,20,-1
 64 768 l 1,21,-1
 192 768 l 1,22,-1
 192 640 l 1,23,-1
 192 512 l 1,24,-1
 192 384 l 1,25,-1
 320 384 l 1,26,-1
 448 384 l 1,27,-1
 448 512 l 1,28,-1
 448 640 l 1,29,-1
 448 768 l 1,0,-1
EndSplineSet
EndChar

StartChar: I
Encoding: 73 73 43
Width: 512
VWidth: 1024
GlyphClass: 1
Flags: W
LayerCount: 2
Fore
SplineSet
320 0 m 1,0,-1
 192 0 l 1,1,-1
 64 0 l 1,2,-1
 64 128 l 1,3,-1
 192 128 l 1,4,-1
 192 256 l 1,5,-1
 192 384 l 1,6,-1
 192 512 l 1,7,-1
 192 640 l 1,8,-1
 64 640 l 1,9,-1
 64 768 l 1,10,-1
 192 768 l 1,11,-1
 320 768 l 1,12,-1
 448 768 l 1,13,-1
 448 640 l 1,14,-1
 320 640 l 1,15,-1
 320 512 l 1,16,-1
 320 384 l 1,17,-1
 320 256 l 1,18,-1
 320 128 l 1,19,-1
 448 128 l 1,20,-1
 448 0 l 1,21,-1
 320 0 l 1,0,-1
EndSplineSet
EndChar

StartChar: J
Encoding: 74 74 44
Width: 640
VWidth: 1024
GlyphClass: 1
Flags: W
LayerCount: 2
Fore
SplineSet
64 256 m 1,0,-1
 192 256 l 1,1,-1
 192 128 l 1,2,-1
 320 128 l 1,3,-1
 448 128 l 1,4,-1
 448 0 l 1,5,-1
 320 0 l 1,6,-1
 192 0 l 1,7,-1
 192 128 l 1,8,-1
 64 128 l 1,9,-1
 64 256 l 1,0,-1
448 128 m 1,10,-1
 448 256 l 1,11,-1
 448 384 l 1,12,-1
 448 512 l 1,13,-1
 448 640 l 1,14,-1
 320 640 l 1,15,-1
 320 768 l 1,16,-1
 448 768 l 1,17,-1
 576 768 l 1,18,-1
 576 640 l 1,19,-1
 576 512 l 1,20,-1
 576 384 l 1,21,-1
 576 256 l 1,22,-1
 576 128 l 1,23,-1
 448 128 l 1,10,-1
EndSplineSet
EndChar

StartChar: K
Encoding: 75 75 45
Width: 640
VWidth: 1024
GlyphClass: 1
Flags: W
LayerCount: 2
Fore
SplineSet
448 768 m 1,0,-1
 576 768 l 1,1,-1
 576 640 l 1,2,-1
 448 640 l 1,3,-1
 448 512 l 1,4,-1
 320 512 l 1,5,-1
 320 384 l 1,6,-1
 320 256 l 1,7,-1
 448 256 l 1,8,-1
 448 128 l 1,9,-1
 576 128 l 1,10,-1
 576 0 l 1,11,-1
 448 0 l 1,12,-1
 448 128 l 1,13,-1
 320 128 l 1,14,-1
 320 256 l 1,15,-1
 192 256 l 1,16,-1
 192 128 l 1,17,-1
 192 0 l 1,18,-1
 64 0 l 1,19,-1
 64 128 l 1,20,-1
 64 256 l 1,21,-1
 64 384 l 1,22,-1
 64 512 l 1,23,-1
 64 640 l 1,24,-1
 64 768 l 1,25,-1
 192 768 l 1,26,-1
 192 640 l 1,27,-1
 192 512 l 1,28,-1
 320 512 l 1,29,-1
 320 640 l 1,30,-1
 448 640 l 1,31,-1
 448 768 l 1,0,-1
EndSplineSet
EndChar

StartChar: L
Encoding: 76 76 46
Width: 640
VWidth: 1024
GlyphClass: 1
Flags: W
LayerCount: 2
Fore
SplineSet
64 768 m 1,0,-1
 192 768 l 1,1,-1
 192 640 l 1,2,-1
 192 512 l 1,3,-1
 192 384 l 1,4,-1
 192 256 l 1,5,-1
 192 128 l 1,6,-1
 320 128 l 1,7,-1
 448 128 l 1,8,-1
 576 128 l 1,9,-1
 576 0 l 1,10,-1
 448 0 l 1,11,-1
 320 0 l 1,12,-1
 192 0 l 1,13,-1
 64 0 l 1,14,-1
 64 128 l 1,15,-1
 64 256 l 1,16,-1
 64 384 l 1,17,-1
 64 512 l 1,18,-1
 64 640 l 1,19,-1
 64 768 l 1,0,-1
EndSplineSet
EndChar

StartChar: M
Encoding: 77 77 47
Width: 768
VWidth: 1024
GlyphClass: 1
Flags: W
LayerCount: 2
Fore
SplineSet
576 768 m 1,0,-1
 704 768 l 1,1,-1
 704 640 l 1,2,-1
 704 512 l 1,3,-1
 704 384 l 1,4,-1
 704 256 l 1,5,-1
 704 128 l 1,6,-1
 704 0 l 1,7,-1
 576 0 l 1,8,-1
 576 128 l 1,9,-1
 576 256 l 1,10,-1
 576 384 l 1,11,-1
 576 512 l 1,12,-1
 448 512 l 1,13,-1
 448 384 l 1,14,-1
 320 384 l 1,15,-1
 320 512 l 1,16,-1
 448 512 l 1,17,-1
 448 640 l 1,18,-1
 576 640 l 1,19,-1
 576 768 l 1,0,-1
64 768 m 1,20,-1
 192 768 l 1,21,-1
 192 640 l 1,22,-1
 320 640 l 1,23,-1
 320 512 l 1,24,-1
 192 512 l 1,25,-1
 192 384 l 1,26,-1
 192 256 l 1,27,-1
 192 128 l 1,28,-1
 192 0 l 1,29,-1
 64 0 l 1,30,-1
 64 128 l 1,31,-1
 64 256 l 1,32,-1
 64 384 l 1,33,-1
 64 512 l 1,34,-1
 64 640 l 1,35,-1
 64 768 l 1,20,-1
EndSplineSet
EndChar

StartChar: N
Encoding: 78 78 48
Width: 640
VWidth: 1024
GlyphClass: 1
Flags: W
LayerCount: 2
Fore
SplineSet
448 768 m 1,0,-1
 576 768 l 1,1,-1
 576 640 l 1,2,-1
 576 512 l 1,3,-1
 576 384 l 1,4,-1
 576 256 l 1,5,-1
 576 128 l 1,6,-1
 576 0 l 1,7,-1
 448 0 l 1,8,-1
 448 128 l 1,9,-1
 448 256 l 1,10,-1
 320 256 l 1,11,-1
 320 384 l 1,12,-1
 448 384 l 1,13,-1
 448 512 l 1,14,-1
 448 640 l 1,15,-1
 448 768 l 1,0,-1
64 768 m 1,16,-1
 192 768 l 1,17,-1
 192 640 l 1,18,-1
 192 512 l 1,19,-1
 320 512 l 1,20,-1
 320 384 l 1,21,-1
 192 384 l 1,22,-1
 192 256 l 1,23,-1
 192 128 l 1,24,-1
 192 0 l 1,25,-1
 64 0 l 1,26,-1
 64 128 l 1,27,-1
 64 256 l 1,28,-1
 64 384 l 1,29,-1
 64 512 l 1,30,-1
 64 640 l 1,31,-1
 64 768 l 1,16,-1
EndSplineSet
EndChar

StartChar: O
Encoding: 79 79 49
Width: 768
VWidth: 1024
GlyphClass: 1
Flags: W
LayerCount: 2
Fore
SplineSet
448 0 m 1,0,-1
 320 0 l 1,1,-1
 192 0 l 1,2,-1
 192 128 l 1,3,-1
 320 128 l 1,4,-1
 448 128 l 1,5,-1
 576 128 l 1,6,-1
 576 0 l 1,7,-1
 448 0 l 1,0,-1
576 128 m 1,8,-1
 576 256 l 1,9,-1
 576 384 l 1,10,-1
 576 512 l 1,11,-1
 576 640 l 1,12,-1
 704 640 l 1,13,-1
 704 512 l 1,14,-1
 704 384 l 1,15,-1
 704 256 l 1,16,-1
 704 128 l 1,17,-1
 576 128 l 1,8,-1
192 128 m 1,18,-1
 64 128 l 1,19,-1
 64 256 l 1,20,-1
 64 384 l 1,21,-1
 64 512 l 1,22,-1
 64 640 l 1,23,-1
 192 640 l 1,24,-1
 192 512 l 1,25,-1
 192 384 l 1,26,-1
 192 256 l 1,27,-1
 192 128 l 1,18,-1
576 640 m 1,28,-1
 448 640 l 1,29,-1
 320 640 l 1,30,-1
 192 640 l 1,31,-1
 192 768 l 1,32,-1
 320 768 l 1,33,-1
 448 768 l 1,34,-1
 576 768 l 1,35,-1
 576 640 l 1,28,-1
EndSplineSet
EndChar

StartChar: P
Encoding: 80 80 50
Width: 640
VWidth: 1024
GlyphClass: 1
Flags: W
LayerCount: 2
Fore
SplineSet
64 128 m 1,0,-1
 64 256 l 1,1,-1
 64 384 l 1,2,-1
 64 512 l 1,3,-1
 64 640 l 1,4,-1
 64 768 l 1,5,-1
 192 768 l 1,6,-1
 320 768 l 1,7,-1
 448 768 l 1,8,-1
 448 640 l 1,9,-1
 576 640 l 1,10,-1
 576 512 l 1,11,-1
 576 384 l 1,12,-1
 448 384 l 1,13,-1
 448 256 l 1,14,-1
 320 256 l 1,15,-1
 192 256 l 1,16,-1
 192 128 l 1,17,-1
 192 0 l 1,18,-1
 64 0 l 1,19,-1
 64 128 l 1,0,-1
320 384 m 1,20,-1
 448 384 l 1,21,-1
 448 512 l 1,22,-1
 448 640 l 1,23,-1
 320 640 l 1,24,-1
 192 640 l 1,25,-1
 192 512 l 1,26,-1
 192 384 l 1,27,-1
 320 384 l 1,20,-1
EndSplineSet
EndChar

StartChar: Q
Encoding: 81 81 51
Width: 768
VWidth: 1024
GlyphClass: 1
Flags: W
LayerCount: 2
Fore
SplineSet
576 0 m 1,0,-1
 704 0 l 1,1,-1
 704 -128 l 1,2,-1
 576 -128 l 1,3,-1
 576 0 l 1,0,-1
576 0 m 1,4,-1
 448 0 l 1,5,-1
 320 0 l 1,6,-1
 192 0 l 1,7,-1
 192 128 l 1,8,-1
 320 128 l 1,9,-1
 448 128 l 1,10,-1
 576 128 l 1,11,-1
 576 0 l 1,4,-1
576 128 m 1,12,-1
 576 256 l 1,13,-1
 576 384 l 1,14,-1
 576 512 l 1,15,-1
 576 640 l 1,16,-1
 704 640 l 1,17,-1
 704 512 l 1,18,-1
 704 384 l 1,19,-1
 704 256 l 1,20,-1
 704 128 l 1,21,-1
 576 128 l 1,12,-1
192 128 m 1,22,-1
 64 128 l 1,23,-1
 64 256 l 1,24,-1
 64 384 l 1,25,-1
 64 512 l 1,26,-1
 64 640 l 1,27,-1
 192 640 l 1,28,-1
 192 512 l 1,29,-1
 192 384 l 1,30,-1
 192 256 l 1,31,-1
 192 128 l 1,22,-1
576 640 m 1,32,-1
 448 640 l 1,33,-1
 320 640 l 1,34,-1
 192 640 l 1,35,-1
 192 768 l 1,36,-1
 320 768 l 1,37,-1
 448 768 l 1,38,-1
 576 768 l 1,39,-1
 576 640 l 1,32,-1
EndSplineSet
EndChar

StartChar: R
Encoding: 82 82 52
Width: 640
VWidth: 1024
GlyphClass: 1
Flags: W
LayerCount: 2
Fore
SplineSet
448 128 m 1,0,-1
 448 256 l 1,1,-1
 576 256 l 1,2,-1
 576 128 l 1,3,-1
 576 0 l 1,4,-1
 448 0 l 1,5,-1
 448 128 l 1,0,-1
64 128 m 1,6,-1
 64 256 l 1,7,-1
 64 384 l 1,8,-1
 64 512 l 1,9,-1
 64 640 l 1,10,-1
 64 768 l 1,11,-1
 192 768 l 1,12,-1
 320 768 l 1,13,-1
 448 768 l 1,14,-1
 448 640 l 1,15,-1
 576 640 l 1,16,-1
 576 512 l 1,17,-1
 576 384 l 1,18,-1
 448 384 l 1,19,-1
 448 256 l 1,20,-1
 320 256 l 1,21,-1
 192 256 l 1,22,-1
 192 128 l 1,23,-1
 192 0 l 1,24,-1
 64 0 l 1,25,-1
 64 128 l 1,6,-1
320 384 m 1,26,-1
 448 384 l 1,27,-1
 448 512 l 1,28,-1
 448 640 l 1,29,-1
 320 640 l 1,30,-1
 192 640 l 1,31,-1
 192 512 l 1,32,-1
 192 384 l 1,33,-1
 320 384 l 1,26,-1
EndSplineSet
EndChar

StartChar: S
Encoding: 83 83 53
Width: 640
VWidth: 1024
GlyphClass: 1
Flags: W
LayerCount: 2
Fore
SplineSet
320 0 m 1,0,-1
 192 0 l 1,1,-1
 64 0 l 1,2,-1
 64 128 l 1,3,-1
 192 128 l 1,4,-1
 320 128 l 1,5,-1
 448 128 l 1,6,-1
 448 0 l 1,7,-1
 320 0 l 1,0,-1
448 128 m 1,8,-1
 448 256 l 1,9,-1
 576 256 l 1,10,-1
 576 128 l 1,11,-1
 448 128 l 1,8,-1
448 256 m 1,12,-1
 320 256 l 1,13,-1
 192 256 l 1,14,-1
 192 384 l 1,15,-1
 320 384 l 1,16,-1
 448 384 l 1,17,-1
 448 256 l 1,12,-1
192 384 m 1,18,-1
 64 384 l 1,19,-1
 64 512 l 1,20,-1
 64 640 l 1,21,-1
 192 640 l 1,22,-1
 192 512 l 1,23,-1
 192 384 l 1,18,-1
448 640 m 1,24,-1
 320 640 l 1,25,-1
 192 640 l 1,26,-1
 192 768 l 1,27,-1
 320 768 l 1,28,-1
 448 768 l 1,29,-1
 576 768 l 1,30,-1
 576 640 l 1,31,-1
 448 640 l 1,24,-1
EndSplineSet
EndChar

StartChar: T
Encoding: 84 84 54
Width: 768
VWidth: 1024
GlyphClass: 1
Flags: W
LayerCount: 2
Fore
SplineSet
320 128 m 1,0,-1
 320 256 l 1,1,-1
 320 384 l 1,2,-1
 320 512 l 1,3,-1
 320 640 l 1,4,-1
 192 640 l 1,5,-1
 64 640 l 1,6,-1
 64 768 l 1,7,-1
 192 768 l 1,8,-1
 320 768 l 1,9,-1
 448 768 l 1,10,-1
 576 768 l 1,11,-1
 704 768 l 1,12,-1
 704 640 l 1,13,-1
 576 640 l 1,14,-1
 448 640 l 1,15,-1
 448 512 l 1,16,-1
 448 384 l 1,17,-1
 448 256 l 1,18,-1
 448 128 l 1,19,-1
 448 0 l 1,20,-1
 320 0 l 1,21,-1
 320 128 l 1,0,-1
EndSplineSet
EndChar

StartChar: U
Encoding: 85 85 55
Width: 640
VWidth: 1024
GlyphClass: 1
Flags: W
LayerCount: 2
Fore
SplineSet
448 768 m 1,0,-1
 576 768 l 1,1,-1
 576 640 l 1,2,-1
 576 512 l 1,3,-1
 576 384 l 1,4,-1
 576 256 l 1,5,-1
 576 128 l 1,6,-1
 448 128 l 1,7,-1
 448 0 l 1,8,-1
 320 0 l 1,9,-1
 192 0 l 1,10,-1
 192 128 l 1,11,-1
 320 128 l 1,12,-1
 448 128 l 1,13,-1
 448 256 l 1,14,-1
 448 384 l 1,15,-1
 448 512 l 1,16,-1
 448 640 l 1,17,-1
 448 768 l 1,0,-1
64 768 m 1,18,-1
 192 768 l 1,19,-1
 192 640 l 1,20,-1
 192 512 l 1,21,-1
 192 384 l 1,22,-1
 192 256 l 1,23,-1
 192 128 l 1,24,-1
 64 128 l 1,25,-1
 64 256 l 1,26,-1
 64 384 l 1,27,-1
 64 512 l 1,28,-1
 64 640 l 1,29,-1
 64 768 l 1,18,-1
EndSplineSet
EndChar

StartChar: V
Encoding: 86 86 56
Width: 768
VWidth: 1024
GlyphClass: 1
Flags: W
LayerCount: 2
Fore
SplineSet
576 768 m 1,0,-1
 704 768 l 1,1,-1
 704 640 l 1,2,-1
 704 512 l 1,3,-1
 704 384 l 1,4,-1
 704 256 l 1,5,-1
 576 256 l 1,6,-1
 576 128 l 1,7,-1
 448 128 l 1,8,-1
 448 0 l 1,9,-1
 320 0 l 1,10,-1
 320 128 l 1,11,-1
 448 128 l 1,12,-1
 448 256 l 1,13,-1
 576 256 l 1,14,-1
 576 384 l 1,15,-1
 576 512 l 1,16,-1
 576 640 l 1,17,-1
 576 768 l 1,0,-1
64 768 m 1,18,-1
 192 768 l 1,19,-1
 192 640 l 1,20,-1
 192 512 l 1,21,-1
 192 384 l 1,22,-1
 192 256 l 1,23,-1
 320 256 l 1,24,-1
 320 128 l 1,25,-1
 192 128 l 1,26,-1
 192 256 l 1,27,-1
 64 256 l 1,28,-1
 64 384 l 1,29,-1
 64 512 l 1,30,-1
 64 640 l 1,31,-1
 64 768 l 1,18,-1
EndSplineSet
EndChar

StartChar: W
Encoding: 87 87 57
Width: 768
VWidth: 1024
GlyphClass: 1
Flags: W
LayerCount: 2
Fore
SplineSet
320 384 m 1,0,-1
 448 384 l 1,1,-1
 448 256 l 1,2,-1
 576 256 l 1,3,-1
 576 384 l 1,4,-1
 576 512 l 1,5,-1
 576 640 l 1,6,-1
 576 768 l 1,7,-1
 704 768 l 1,8,-1
 704 640 l 1,9,-1
 704 512 l 1,10,-1
 704 384 l 1,11,-1
 704 256 l 1,12,-1
 704 128 l 1,13,-1
 704 0 l 1,14,-1
 576 0 l 1,15,-1
 576 128 l 1,16,-1
 448 128 l 1,17,-1
 448 256 l 1,18,-1
 320 256 l 1,19,-1
 320 128 l 1,20,-1
 192 128 l 1,21,-1
 192 0 l 1,22,-1
 64 0 l 1,23,-1
 64 128 l 1,24,-1
 64 256 l 1,25,-1
 64 384 l 1,26,-1
 64 512 l 1,27,-1
 64 640 l 1,28,-1
 64 768 l 1,29,-1
 192 768 l 1,30,-1
 192 640 l 1,31,-1
 192 512 l 1,32,-1
 192 384 l 1,33,-1
 192 256 l 1,34,-1
 320 256 l 1,35,-1
 320 384 l 1,0,-1
EndSplineSet
EndChar

StartChar: X
Encoding: 88 88 58
Width: 640
VWidth: 1024
GlyphClass: 1
Flags: W
LayerCount: 2
Fore
SplineSet
448 768 m 1,0,-1
 576 768 l 1,1,-1
 576 640 l 1,2,-1
 576 512 l 1,3,-1
 448 512 l 1,4,-1
 448 384 l 1,5,-1
 448 256 l 1,6,-1
 576 256 l 1,7,-1
 576 128 l 1,8,-1
 576 0 l 1,9,-1
 448 0 l 1,10,-1
 448 128 l 1,11,-1
 448 256 l 1,12,-1
 320 256 l 1,13,-1
 192 256 l 1,14,-1
 192 128 l 1,15,-1
 192 0 l 1,16,-1
 64 0 l 1,17,-1
 64 128 l 1,18,-1
 64 256 l 1,19,-1
 192 256 l 1,20,-1
 192 384 l 1,21,-1
 192 512 l 1,22,-1
 320 512 l 1,23,-1
 448 512 l 1,24,-1
 448 640 l 1,25,-1
 448 768 l 1,0,-1
64 768 m 1,26,-1
 192 768 l 1,27,-1
 192 640 l 1,28,-1
 192 512 l 1,29,-1
 64 512 l 1,30,-1
 64 640 l 1,31,-1
 64 768 l 1,26,-1
EndSplineSet
EndChar

StartChar: Y
Encoding: 89 89 59
Width: 768
VWidth: 1024
GlyphClass: 1
Flags: W
LayerCount: 2
Fore
SplineSet
576 768 m 1,0,-1
 704 768 l 1,1,-1
 704 640 l 1,2,-1
 576 640 l 1,3,-1
 576 512 l 1,4,-1
 448 512 l 1,5,-1
 448 384 l 1,6,-1
 448 256 l 1,7,-1
 448 128 l 1,8,-1
 448 0 l 1,9,-1
 320 0 l 1,10,-1
 320 128 l 1,11,-1
 320 256 l 1,12,-1
 320 384 l 1,13,-1
 320 512 l 1,14,-1
 448 512 l 1,15,-1
 448 640 l 1,16,-1
 576 640 l 1,17,-1
 576 768 l 1,0,-1
64 768 m 1,18,-1
 192 768 l 1,19,-1
 192 640 l 1,20,-1
 320 640 l 1,21,-1
 320 512 l 1,22,-1
 192 512 l 1,23,-1
 192 640 l 1,24,-1
 64 640 l 1,25,-1
 64 768 l 1,18,-1
EndSplineSet
EndChar

StartChar: Z
Encoding: 90 90 60
Width: 640
VWidth: 1024
GlyphClass: 1
Flags: W
LayerCount: 2
Fore
SplineSet
448 0 m 1,0,-1
 320 0 l 1,1,-1
 192 0 l 1,2,-1
 64 0 l 1,3,-1
 64 128 l 1,4,-1
 64 256 l 1,5,-1
 192 256 l 1,6,-1
 192 128 l 1,7,-1
 320 128 l 1,8,-1
 448 128 l 1,9,-1
 576 128 l 1,10,-1
 576 0 l 1,11,-1
 448 0 l 1,0,-1
192 256 m 1,12,-1
 192 384 l 1,13,-1
 320 384 l 1,14,-1
 320 256 l 1,15,-1
 192 256 l 1,12,-1
320 384 m 1,16,-1
 320 512 l 1,17,-1
 448 512 l 1,18,-1
 448 384 l 1,19,-1
 320 384 l 1,16,-1
448 512 m 1,20,-1
 448 640 l 1,21,-1
 320 640 l 1,22,-1
 192 640 l 1,23,-1
 64 640 l 1,24,-1
 64 768 l 1,25,-1
 192 768 l 1,26,-1
 320 768 l 1,27,-1
 448 768 l 1,28,-1
 576 768 l 1,29,-1
 576 640 l 1,30,-1
 576 512 l 1,31,-1
 448 512 l 1,20,-1
EndSplineSet
EndChar

StartChar: bracketleft
Encoding: 91 91 61
Width: 384
VWidth: 1024
GlyphClass: 1
Flags: W
LayerCount: 2
Fore
SplineSet
192 0 m 1,0,-1
 64 0 l 1,1,-1
 64 128 l 1,2,-1
 64 256 l 1,3,-1
 64 384 l 1,4,-1
 64 512 l 1,5,-1
 64 640 l 1,6,-1
 64 768 l 1,7,-1
 192 768 l 1,8,-1
 320 768 l 1,9,-1
 320 640 l 1,10,-1
 192 640 l 1,11,-1
 192 512 l 1,12,-1
 192 384 l 1,13,-1
 192 256 l 1,14,-1
 192 128 l 1,15,-1
 320 128 l 1,16,-1
 320 0 l 1,17,-1
 192 0 l 1,0,-1
EndSplineSet
EndChar

StartChar: backslash
Encoding: 92 92 62
Width: 512
VWidth: 1024
GlyphClass: 1
Flags: W
LayerCount: 2
Fore
SplineSet
64 768 m 1,0,-1
 192 768 l 1,1,-1
 192 640 l 1,2,-1
 192 512 l 1,3,-1
 320 512 l 1,4,-1
 320 384 l 1,5,-1
 320 256 l 1,6,-1
 448 256 l 1,7,-1
 448 128 l 1,8,-1
 448 0 l 1,9,-1
 320 0 l 1,10,-1
 320 128 l 1,11,-1
 320 256 l 1,12,-1
 192 256 l 1,13,-1
 192 384 l 1,14,-1
 192 512 l 1,15,-1
 64 512 l 1,16,-1
 64 640 l 1,17,-1
 64 768 l 1,0,-1
EndSplineSet
EndChar

StartChar: bracketright
Encoding: 93 93 63
Width: 384
VWidth: 1024
GlyphClass: 1
Flags: W
LayerCount: 2
Fore
SplineSet
192 0 m 1,0,-1
 64 0 l 1,1,-1
 64 128 l 1,2,-1
 192 128 l 1,3,-1
 192 256 l 1,4,-1
 192 384 l 1,5,-1
 192 512 l 1,6,-1
 192 640 l 1,7,-1
 64 640 l 1,8,-1
 64 768 l 1,9,-1
 192 768 l 1,10,-1
 320 768 l 1,11,-1
 320 640 l 1,12,-1
 320 512 l 1,13,-1
 320 384 l 1,14,-1
 320 256 l 1,15,-1
 320 128 l 1,16,-1
 320 0 l 1,17,-1
 192 0 l 1,0,-1
EndSplineSet
EndChar

StartChar: asciicircum
Encoding: 94 94 64
Width: 512
VWidth: 1024
GlyphClass: 1
Flags: W
LayerCount: 2
Fore
SplineSet
192 768 m 1,0,-1
 320 768 l 1,1,-1
 320 640 l 1,2,-1
 448 640 l 1,3,-1
 448 512 l 1,4,-1
 320 512 l 1,5,-1
 320 640 l 1,6,-1
 192 640 l 1,7,-1
 192 512 l 1,8,-1
 64 512 l 1,9,-1
 64 640 l 1,10,-1
 192 640 l 1,11,-1
 192 768 l 1,0,-1
EndSplineSet
EndChar

StartChar: underscore
Encoding: 95 95 65
Width: 640
VWidth: 1024
GlyphClass: 1
Flags: W
LayerCount: 2
Fore
SplineSet
448 0 m 1,0,-1
 320 0 l 1,1,-1
 192 0 l 1,2,-1
 64 0 l 1,3,-1
 64 128 l 1,4,-1
 192 128 l 1,5,-1
 320 128 l 1,6,-1
 448 128 l 1,7,-1
 576 128 l 1,8,-1
 576 0 l 1,9,-1
 448 0 l 1,0,-1
EndSplineSet
EndChar

StartChar: grave
Encoding: 96 96 66
Width: 384
VWidth: 1024
GlyphClass: 1
Flags: W
LayerCount: 2
Fore
SplineSet
64 768 m 1,0,-1
 192 768 l 1,1,-1
 192 640 l 1,2,-1
 320 640 l 1,3,-1
 320 512 l 1,4,-1
 192 512 l 1,5,-1
 192 640 l 1,6,-1
 64 640 l 1,7,-1
 64 768 l 1,0,-1
EndSplineSet
EndChar

StartChar: a
Encoding: 97 97 67
Width: 640
VWidth: 1024
GlyphClass: 1
Flags: W
LayerCount: 2
Fore
SplineSet
448 0 m 1,0,-1
 320 0 l 1,1,-1
 192 0 l 1,2,-1
 192 128 l 1,3,-1
 320 128 l 1,4,-1
 448 128 l 1,5,-1
 448 256 l 1,6,-1
 448 384 l 1,7,-1
 576 384 l 1,8,-1
 576 256 l 1,9,-1
 576 128 l 1,10,-1
 576 0 l 1,11,-1
 448 0 l 1,0,-1
192 128 m 1,12,-1
 64 128 l 1,13,-1
 64 256 l 1,14,-1
 64 384 l 1,15,-1
 192 384 l 1,16,-1
 192 256 l 1,17,-1
 192 128 l 1,12,-1
448 384 m 1,18,-1
 320 384 l 1,19,-1
 192 384 l 1,20,-1
 192 512 l 1,21,-1
 320 512 l 1,22,-1
 448 512 l 1,23,-1
 448 384 l 1,18,-1
EndSplineSet
EndChar

StartChar: b
Encoding: 98 98 68
Width: 640
VWidth: 1024
GlyphClass: 1
Flags: W
LayerCount: 2
Fore
SplineSet
64 768 m 1,0,-1
 192 768 l 1,1,-1
 192 640 l 1,2,-1
 192 512 l 1,3,-1
 320 512 l 1,4,-1
 448 512 l 1,5,-1
 448 384 l 1,6,-1
 576 384 l 1,7,-1
 576 256 l 1,8,-1
 576 128 l 1,9,-1
 448 128 l 1,10,-1
 448 0 l 1,11,-1
 320 0 l 1,12,-1
 192 0 l 1,13,-1
 192 128 l 1,14,-1
 320 128 l 1,15,-1
 448 128 l 1,16,-1
 448 256 l 1,17,-1
 448 384 l 1,18,-1
 320 384 l 1,19,-1
 192 384 l 1,20,-1
 192 256 l 1,21,-1
 192 128 l 1,22,-1
 64 128 l 1,23,-1
 64 256 l 1,24,-1
 64 384 l 1,25,-1
 64 512 l 1,26,-1
 64 640 l 1,27,-1
 64 768 l 1,0,-1
EndSplineSet
EndChar

StartChar: c
Encoding: 99 99 69
Width: 512
VWidth: 1024
GlyphClass: 1
Flags: W
LayerCount: 2
Fore
SplineSet
320 0 m 1,0,-1
 192 0 l 1,1,-1
 192 128 l 1,2,-1
 320 128 l 1,3,-1
 448 128 l 1,4,-1
 448 0 l 1,5,-1
 320 0 l 1,0,-1
192 128 m 1,6,-1
 64 128 l 1,7,-1
 64 256 l 1,8,-1
 64 384 l 1,9,-1
 192 384 l 1,10,-1
 192 256 l 1,11,-1
 192 128 l 1,6,-1
192 384 m 1,12,-1
 192 512 l 1,13,-1
 320 512 l 1,14,-1
 448 512 l 1,15,-1
 448 384 l 1,16,-1
 320 384 l 1,17,-1
 192 384 l 1,12,-1
EndSplineSet
EndChar

StartChar: d
Encoding: 100 100 70
Width: 640
VWidth: 1024
GlyphClass: 1
Flags: W
LayerCount: 2
Fore
SplineSet
448 768 m 1,0,-1
 576 768 l 1,1,-1
 576 640 l 1,2,-1
 576 512 l 1,3,-1
 576 384 l 1,4,-1
 576 256 l 1,5,-1
 576 128 l 1,6,-1
 448 128 l 1,7,-1
 448 0 l 1,8,-1
 320 0 l 1,9,-1
 192 0 l 1,10,-1
 192 128 l 1,11,-1
 320 128 l 1,12,-1
 448 128 l 1,13,-1
 448 256 l 1,14,-1
 448 384 l 1,15,-1
 320 384 l 1,16,-1
 192 384 l 1,17,-1
 192 256 l 1,18,-1
 192 128 l 1,19,-1
 64 128 l 1,20,-1
 64 256 l 1,21,-1
 64 384 l 1,22,-1
 192 384 l 1,23,-1
 192 512 l 1,24,-1
 320 512 l 1,25,-1
 448 512 l 1,26,-1
 448 640 l 1,27,-1
 448 768 l 1,0,-1
EndSplineSet
EndChar

StartChar: e
Encoding: 101 101 71
Width: 640
VWidth: 1024
GlyphClass: 1
Flags: W
LayerCount: 2
Fore
SplineSet
320 0 m 1,0,-1
 192 0 l 1,1,-1
 192 128 l 1,2,-1
 320 128 l 1,3,-1
 448 128 l 1,4,-1
 448 0 l 1,5,-1
 320 0 l 1,0,-1
192 128 m 1,6,-1
 64 128 l 1,7,-1
 64 256 l 1,8,-1
 64 384 l 1,9,-1
 192 384 l 1,10,-1
 192 512 l 1,11,-1
 320 512 l 1,12,-1
 448 512 l 1,13,-1
 448 384 l 1,14,-1
 576 384 l 1,15,-1
 576 256 l 1,16,-1
 448 256 l 1,17,-1
 320 256 l 1,18,-1
 192 256 l 1,19,-1
 192 128 l 1,6,-1
EndSplineSet
EndChar

StartChar: f
Encoding: 102 102 72
Width: 512
VWidth: 1024
GlyphClass: 1
Flags: W
LayerCount: 2
Fore
SplineSet
192 128 m 1,0,-1
 192 256 l 1,1,-1
 192 384 l 1,2,-1
 64 384 l 1,3,-1
 64 512 l 1,4,-1
 192 512 l 1,5,-1
 192 640 l 1,6,-1
 320 640 l 1,7,-1
 320 512 l 1,8,-1
 448 512 l 1,9,-1
 448 384 l 1,10,-1
 320 384 l 1,11,-1
 320 256 l 1,12,-1
 320 128 l 1,13,-1
 320 0 l 1,14,-1
 192 0 l 1,15,-1
 192 128 l 1,0,-1
320 640 m 1,16,-1
 320 768 l 1,17,-1
 448 768 l 1,18,-1
 576 768 l 1,19,-1
 576 640 l 1,20,-1
 448 640 l 1,21,-1
 320 640 l 1,16,-1
EndSplineSet
EndChar

StartChar: g
Encoding: 103 103 73
Width: 640
VWidth: 1024
GlyphClass: 1
Flags: W
LayerCount: 2
Fore
SplineSet
320 -256 m 1,0,-1
 192 -256 l 1,1,-1
 192 -128 l 1,2,-1
 320 -128 l 1,3,-1
 448 -128 l 1,4,-1
 448 -256 l 1,5,-1
 320 -256 l 1,0,-1
448 -128 m 1,6,-1
 448 0 l 1,7,-1
 320 0 l 1,8,-1
 192 0 l 1,9,-1
 192 128 l 1,10,-1
 320 128 l 1,11,-1
 448 128 l 1,12,-1
 448 256 l 1,13,-1
 448 384 l 1,14,-1
 576 384 l 1,15,-1
 576 256 l 1,16,-1
 576 128 l 1,17,-1
 576 0 l 1,18,-1
 576 -128 l 1,19,-1
 448 -128 l 1,6,-1
192 128 m 1,20,-1
 64 128 l 1,21,-1
 64 256 l 1,22,-1
 64 384 l 1,23,-1
 192 384 l 1,24,-1
 192 256 l 1,25,-1
 192 128 l 1,20,-1
448 384 m 1,26,-1
 320 384 l 1,27,-1
 192 384 l 1,28,-1
 192 512 l 1,29,-1
 320 512 l 1,30,-1
 448 512 l 1,31,-1
 448 384 l 1,26,-1
EndSplineSet
EndChar

StartChar: h
Encoding: 104 104 74
Width: 640
VWidth: 1024
GlyphClass: 1
Flags: W
LayerCount: 2
Fore
SplineSet
64 768 m 1,0,-1
 192 768 l 1,1,-1
 192 640 l 1,2,-1
 192 512 l 1,3,-1
 320 512 l 1,4,-1
 448 512 l 1,5,-1
 448 384 l 1,6,-1
 576 384 l 1,7,-1
 576 256 l 1,8,-1
 576 128 l 1,9,-1
 576 0 l 1,10,-1
 448 0 l 1,11,-1
 448 128 l 1,12,-1
 448 256 l 1,13,-1
 448 384 l 1,14,-1
 320 384 l 1,15,-1
 192 384 l 1,16,-1
 192 256 l 1,17,-1
 192 128 l 1,18,-1
 192 0 l 1,19,-1
 64 0 l 1,20,-1
 64 128 l 1,21,-1
 64 256 l 1,22,-1
 64 384 l 1,23,-1
 64 512 l 1,24,-1
 64 640 l 1,25,-1
 64 768 l 1,0,-1
EndSplineSet
EndChar

StartChar: i
Encoding: 105 105 75
Width: 256
VWidth: 1024
GlyphClass: 1
Flags: W
LayerCount: 2
Fore
SplineSet
64 384 m 1,0,-1
 192 384 l 1,1,-1
 192 256 l 1,2,-1
 192 128 l 1,3,-1
 192 0 l 1,4,-1
 64 0 l 1,5,-1
 64 128 l 1,6,-1
 64 256 l 1,7,-1
 64 384 l 1,0,-1
64 640 m 1,8,-1
 192 640 l 1,9,-1
 192 512 l 1,10,-1
 64 512 l 1,11,-1
 64 640 l 1,8,-1
EndSplineSet
EndChar

StartChar: j
Encoding: 106 106 76
Width: 384
VWidth: 1024
GlyphClass: 1
Flags: W
LayerCount: 2
Fore
SplineSet
192 384 m 1,0,-1
 320 384 l 1,1,-1
 320 256 l 1,2,-1
 320 128 l 1,3,-1
 320 0 l 1,4,-1
 320 -128 l 1,5,-1
 192 -128 l 1,6,-1
 192 -256 l 1,7,-1
 64 -256 l 1,8,-1
 -64 -256 l 1,9,-1
 -64 -128 l 1,10,-1
 64 -128 l 1,11,-1
 192 -128 l 1,12,-1
 192 0 l 1,13,-1
 192 128 l 1,14,-1
 192 256 l 1,15,-1
 192 384 l 1,0,-1
192 640 m 1,16,-1
 320 640 l 1,17,-1
 320 512 l 1,18,-1
 192 512 l 1,19,-1
 192 640 l 1,16,-1
EndSplineSet
EndChar

StartChar: k
Encoding: 107 107 77
Width: 512
VWidth: 1024
GlyphClass: 1
Flags: W
LayerCount: 2
Fore
SplineSet
320 512 m 1,0,-1
 448 512 l 1,1,-1
 448 384 l 1,2,-1
 320 384 l 1,3,-1
 320 256 l 1,4,-1
 320 128 l 1,5,-1
 448 128 l 1,6,-1
 448 0 l 1,7,-1
 320 0 l 1,8,-1
 320 128 l 1,9,-1
 192 128 l 1,10,-1
 192 0 l 1,11,-1
 64 0 l 1,12,-1
 64 128 l 1,13,-1
 64 256 l 1,14,-1
 64 384 l 1,15,-1
 64 512 l 1,16,-1
 64 640 l 1,17,-1
 64 768 l 1,18,-1
 192 768 l 1,19,-1
 192 640 l 1,20,-1
 192 512 l 1,21,-1
 192 384 l 1,22,-1
 320 384 l 1,23,-1
 320 512 l 1,0,-1
EndSplineSet
EndChar

StartChar: l
Encoding: 108 108 78
Width: 384
VWidth: 1024
GlyphClass: 1
Flags: W
LayerCount: 2
Fore
SplineSet
64 768 m 1,0,-1
 192 768 l 1,1,-1
 192 640 l 1,2,-1
 192 512 l 1,3,-1
 192 384 l 1,4,-1
 192 256 l 1,5,-1
 192 128 l 1,6,-1
 320 128 l 1,7,-1
 320 0 l 1,8,-1
 192 0 l 1,9,-1
 64 0 l 1,10,-1
 64 128 l 1,11,-1
 64 256 l 1,12,-1
 64 384 l 1,13,-1
 64 512 l 1,14,-1
 64 640 l 1,15,-1
 64 768 l 1,0,-1
EndSplineSet
EndChar

StartChar: m
Encoding: 109 109 79
Width: 768
VWidth: 1024
GlyphClass: 1
Flags: W
LayerCount: 2
Fore
SplineSet
448 512 m 1,0,-1
 576 512 l 1,1,-1
 576 384 l 1,2,-1
 704 384 l 1,3,-1
 704 256 l 1,4,-1
 704 128 l 1,5,-1
 704 0 l 1,6,-1
 576 0 l 1,7,-1
 576 128 l 1,8,-1
 576 256 l 1,9,-1
 576 384 l 1,10,-1
 448 384 l 1,11,-1
 448 256 l 1,12,-1
 448 128 l 1,13,-1
 320 128 l 1,14,-1
 320 256 l 1,15,-1
 320 384 l 1,16,-1
 448 384 l 1,17,-1
 448 512 l 1,0,-1
64 128 m 1,18,-1
 64 256 l 1,19,-1
 64 384 l 1,20,-1
 64 512 l 1,21,-1
 192 512 l 1,22,-1
 320 512 l 1,23,-1
 320 384 l 1,24,-1
 192 384 l 1,25,-1
 192 256 l 1,26,-1
 192 128 l 1,27,-1
 192 0 l 1,28,-1
 64 0 l 1,29,-1
 64 128 l 1,18,-1
EndSplineSet
EndChar

StartChar: n
Encoding: 110 110 80
Width: 640
VWidth: 1024
GlyphClass: 1
Flags: W
LayerCount: 2
Fore
SplineSet
448 128 m 1,0,-1
 448 256 l 1,1,-1
 448 384 l 1,2,-1
 576 384 l 1,3,-1
 576 256 l 1,4,-1
 576 128 l 1,5,-1
 576 0 l 1,6,-1
 448 0 l 1,7,-1
 448 128 l 1,0,-1
64 128 m 1,8,-1
 64 256 l 1,9,-1
 64 384 l 1,10,-1
 64 512 l 1,11,-1
 192 512 l 1,12,-1
 320 512 l 1,13,-1
 448 512 l 1,14,-1
 448 384 l 1,15,-1
 320 384 l 1,16,-1
 192 384 l 1,17,-1
 192 256 l 1,18,-1
 192 128 l 1,19,-1
 192 0 l 1,20,-1
 64 0 l 1,21,-1
 64 128 l 1,8,-1
EndSplineSet
EndChar

StartChar: o
Encoding: 111 111 81
Width: 640
VWidth: 1024
GlyphClass: 1
Flags: W
LayerCount: 2
Fore
SplineSet
320 0 m 1,0,-1
 192 0 l 1,1,-1
 192 128 l 1,2,-1
 320 128 l 1,3,-1
 448 128 l 1,4,-1
 448 0 l 1,5,-1
 320 0 l 1,0,-1
448 128 m 1,6,-1
 448 256 l 1,7,-1
 448 384 l 1,8,-1
 576 384 l 1,9,-1
 576 256 l 1,10,-1
 576 128 l 1,11,-1
 448 128 l 1,6,-1
192 128 m 1,12,-1
 64 128 l 1,13,-1
 64 256 l 1,14,-1
 64 384 l 1,15,-1
 192 384 l 1,16,-1
 192 256 l 1,17,-1
 192 128 l 1,12,-1
448 384 m 1,18,-1
 320 384 l 1,19,-1
 192 384 l 1,20,-1
 192 512 l 1,21,-1
 320 512 l 1,22,-1
 448 512 l 1,23,-1
 448 384 l 1,18,-1
EndSplineSet
EndChar

StartChar: p
Encoding: 112 112 82
Width: 640
VWidth: 1024
GlyphClass: 1
Flags: W
LayerCount: 2
Fore
SplineSet
64 -128 m 1,0,-1
 64 0 l 1,1,-1
 64 128 l 1,2,-1
 64 256 l 1,3,-1
 64 384 l 1,4,-1
 192 384 l 1,5,-1
 192 256 l 1,6,-1
 192 128 l 1,7,-1
 320 128 l 1,8,-1
 448 128 l 1,9,-1
 448 0 l 1,10,-1
 320 0 l 1,11,-1
 192 0 l 1,12,-1
 192 -128 l 1,13,-1
 192 -256 l 1,14,-1
 64 -256 l 1,15,-1
 64 -128 l 1,0,-1
448 128 m 1,16,-1
 448 256 l 1,17,-1
 448 384 l 1,18,-1
 576 384 l 1,19,-1
 576 256 l 1,20,-1
 576 128 l 1,21,-1
 448 128 l 1,16,-1
448 384 m 1,22,-1
 320 384 l 1,23,-1
 192 384 l 1,24,-1
 192 512 l 1,25,-1
 320 512 l 1,26,-1
 448 512 l 1,27,-1
 448 384 l 1,22,-1
EndSplineSet
EndChar

StartChar: q
Encoding: 113 113 83
Width: 640
VWidth: 1024
GlyphClass: 1
Flags: W
LayerCount: 2
Fore
SplineSet
448 -128 m 1,0,-1
 448 0 l 1,1,-1
 320 0 l 1,2,-1
 192 0 l 1,3,-1
 192 128 l 1,4,-1
 320 128 l 1,5,-1
 448 128 l 1,6,-1
 448 256 l 1,7,-1
 448 384 l 1,8,-1
 576 384 l 1,9,-1
 576 256 l 1,10,-1
 576 128 l 1,11,-1
 576 0 l 1,12,-1
 576 -128 l 1,13,-1
 576 -256 l 1,14,-1
 448 -256 l 1,15,-1
 448 -128 l 1,0,-1
192 128 m 1,16,-1
 64 128 l 1,17,-1
 64 256 l 1,18,-1
 64 384 l 1,19,-1
 192 384 l 1,20,-1
 192 256 l 1,21,-1
 192 128 l 1,16,-1
448 384 m 1,22,-1
 320 384 l 1,23,-1
 192 384 l 1,24,-1
 192 512 l 1,25,-1
 320 512 l 1,26,-1
 448 512 l 1,27,-1
 448 384 l 1,22,-1
EndSplineSet
EndChar

StartChar: r
Encoding: 114 114 84
Width: 512
VWidth: 1024
GlyphClass: 1
Flags: W
LayerCount: 2
Fore
SplineSet
64 128 m 1,0,-1
 64 256 l 1,1,-1
 64 384 l 1,2,-1
 192 384 l 1,3,-1
 192 256 l 1,4,-1
 192 128 l 1,5,-1
 192 0 l 1,6,-1
 64 0 l 1,7,-1
 64 128 l 1,0,-1
192 384 m 1,8,-1
 192 512 l 1,9,-1
 320 512 l 1,10,-1
 448 512 l 1,11,-1
 448 384 l 1,12,-1
 320 384 l 1,13,-1
 192 384 l 1,8,-1
EndSplineSet
EndChar

StartChar: s
Encoding: 115 115 85
Width: 512
VWidth: 1024
GlyphClass: 1
Flags: W
LayerCount: 2
Fore
SplineSet
320 256 m 1,0,-1
 448 256 l 1,1,-1
 448 128 l 1,2,-1
 320 128 l 1,3,-1
 320 0 l 1,4,-1
 192 0 l 1,5,-1
 64 0 l 1,6,-1
 64 128 l 1,7,-1
 192 128 l 1,8,-1
 320 128 l 1,9,-1
 320 256 l 1,0,-1
320 384 m 1,10,-1
 192 384 l 1,11,-1
 192 256 l 1,12,-1
 64 256 l 1,13,-1
 64 384 l 1,14,-1
 64 512 l 1,15,-1
 192 512 l 1,16,-1
 320 512 l 1,17,-1
 448 512 l 1,18,-1
 448 384 l 1,19,-1
 320 384 l 1,10,-1
EndSplineSet
EndChar

StartChar: t
Encoding: 116 116 86
Width: 512
VWidth: 1024
GlyphClass: 1
Flags: W
LayerCount: 2
Fore
SplineSet
192 640 m 1,0,-1
 320 640 l 1,1,-1
 320 512 l 1,2,-1
 448 512 l 1,3,-1
 448 384 l 1,4,-1
 320 384 l 1,5,-1
 320 256 l 1,6,-1
 320 128 l 1,7,-1
 448 128 l 1,8,-1
 448 0 l 1,9,-1
 320 0 l 1,10,-1
 320 128 l 1,11,-1
 192 128 l 1,12,-1
 192 256 l 1,13,-1
 192 384 l 1,14,-1
 64 384 l 1,15,-1
 64 512 l 1,16,-1
 192 512 l 1,17,-1
 192 640 l 1,0,-1
EndSplineSet
EndChar

StartChar: u
Encoding: 117 117 87
Width: 640
VWidth: 1024
GlyphClass: 1
Flags: W
LayerCount: 2
Fore
SplineSet
448 512 m 1,0,-1
 576 512 l 1,1,-1
 576 384 l 1,2,-1
 576 256 l 1,3,-1
 576 128 l 1,4,-1
 448 128 l 1,5,-1
 448 0 l 1,6,-1
 320 0 l 1,7,-1
 192 0 l 1,8,-1
 192 128 l 1,9,-1
 320 128 l 1,10,-1
 448 128 l 1,11,-1
 448 256 l 1,12,-1
 448 384 l 1,13,-1
 448 512 l 1,0,-1
64 512 m 1,14,-1
 192 512 l 1,15,-1
 192 384 l 1,16,-1
 192 256 l 1,17,-1
 192 128 l 1,18,-1
 64 128 l 1,19,-1
 64 256 l 1,20,-1
 64 384 l 1,21,-1
 64 512 l 1,14,-1
EndSplineSet
EndChar

StartChar: v
Encoding: 118 118 88
Width: 768
VWidth: 1024
GlyphClass: 1
Flags: W
LayerCount: 2
Fore
SplineSet
576 512 m 1,0,-1
 704 512 l 1,1,-1
 704 384 l 1,2,-1
 704 256 l 1,3,-1
 576 256 l 1,4,-1
 576 128 l 1,5,-1
 448 128 l 1,6,-1
 448 0 l 1,7,-1
 320 0 l 1,8,-1
 320 128 l 1,9,-1
 448 128 l 1,10,-1
 448 256 l 1,11,-1
 576 256 l 1,12,-1
 576 384 l 1,13,-1
 576 512 l 1,0,-1
64 512 m 1,14,-1
 192 512 l 1,15,-1
 192 384 l 1,16,-1
 192 256 l 1,17,-1
 320 256 l 1,18,-1
 320 128 l 1,19,-1
 192 128 l 1,20,-1
 192 256 l 1,21,-1
 64 256 l 1,22,-1
 64 384 l 1,23,-1
 64 512 l 1,14,-1
EndSplineSet
EndChar

StartChar: w
Encoding: 119 119 89
Width: 768
VWidth: 1024
GlyphClass: 1
Flags: W
LayerCount: 2
Fore
SplineSet
320 384 m 1,0,-1
 448 384 l 1,1,-1
 448 256 l 1,2,-1
 448 128 l 1,3,-1
 576 128 l 1,4,-1
 576 0 l 1,5,-1
 448 0 l 1,6,-1
 448 128 l 1,7,-1
 320 128 l 1,8,-1
 320 0 l 1,9,-1
 192 0 l 1,10,-1
 192 128 l 1,11,-1
 320 128 l 1,12,-1
 320 256 l 1,13,-1
 320 384 l 1,0,-1
576 512 m 1,14,-1
 704 512 l 1,15,-1
 704 384 l 1,16,-1
 704 256 l 1,17,-1
 704 128 l 1,18,-1
 576 128 l 1,19,-1
 576 256 l 1,20,-1
 576 384 l 1,21,-1
 576 512 l 1,14,-1
64 512 m 1,22,-1
 192 512 l 1,23,-1
 192 384 l 1,24,-1
 192 256 l 1,25,-1
 192 128 l 1,26,-1
 64 128 l 1,27,-1
 64 256 l 1,28,-1
 64 384 l 1,29,-1
 64 512 l 1,22,-1
EndSplineSet
EndChar

StartChar: x
Encoding: 120 120 90
Width: 640
VWidth: 1024
GlyphClass: 1
Flags: W
LayerCount: 2
Fore
SplineSet
448 512 m 1,0,-1
 576 512 l 1,1,-1
 576 384 l 1,2,-1
 448 384 l 1,3,-1
 448 256 l 1,4,-1
 448 128 l 1,5,-1
 576 128 l 1,6,-1
 576 0 l 1,7,-1
 448 0 l 1,8,-1
 448 128 l 1,9,-1
 320 128 l 1,10,-1
 192 128 l 1,11,-1
 192 0 l 1,12,-1
 64 0 l 1,13,-1
 64 128 l 1,14,-1
 192 128 l 1,15,-1
 192 256 l 1,16,-1
 192 384 l 1,17,-1
 320 384 l 1,18,-1
 448 384 l 1,19,-1
 448 512 l 1,0,-1
64 512 m 1,20,-1
 192 512 l 1,21,-1
 192 384 l 1,22,-1
 64 384 l 1,23,-1
 64 512 l 1,20,-1
EndSplineSet
EndChar

StartChar: y
Encoding: 121 121 91
Width: 640
VWidth: 1024
GlyphClass: 1
Flags: W
LayerCount: 2
Fore
SplineSet
448 512 m 1,0,-1
 576 512 l 1,1,-1
 576 384 l 1,2,-1
 576 256 l 1,3,-1
 576 128 l 1,4,-1
 576 0 l 1,5,-1
 576 -128 l 1,6,-1
 448 -128 l 1,7,-1
 448 -256 l 1,8,-1
 320 -256 l 1,9,-1
 192 -256 l 1,10,-1
 192 -128 l 1,11,-1
 320 -128 l 1,12,-1
 448 -128 l 1,13,-1
 448 0 l 1,14,-1
 320 0 l 1,15,-1
 192 0 l 1,16,-1
 192 128 l 1,17,-1
 320 128 l 1,18,-1
 448 128 l 1,19,-1
 448 256 l 1,20,-1
 448 384 l 1,21,-1
 448 512 l 1,0,-1
64 512 m 1,22,-1
 192 512 l 1,23,-1
 192 384 l 1,24,-1
 192 256 l 1,25,-1
 192 128 l 1,26,-1
 64 128 l 1,27,-1
 64 256 l 1,28,-1
 64 384 l 1,29,-1
 64 512 l 1,22,-1
EndSplineSet
EndChar

StartChar: z
Encoding: 122 122 92
Width: 512
VWidth: 1024
GlyphClass: 1
Flags: W
LayerCount: 2
Fore
SplineSet
64 256 m 1,0,-1
 192 256 l 1,1,-1
 192 128 l 1,2,-1
 320 128 l 1,3,-1
 448 128 l 1,4,-1
 448 0 l 1,5,-1
 320 0 l 1,6,-1
 192 0 l 1,7,-1
 64 0 l 1,8,-1
 64 128 l 1,9,-1
 64 256 l 1,0,-1
448 384 m 1,10,-1
 448 256 l 1,11,-1
 320 256 l 1,12,-1
 320 384 l 1,13,-1
 192 384 l 1,14,-1
 64 384 l 1,15,-1
 64 512 l 1,16,-1
 192 512 l 1,17,-1
 320 512 l 1,18,-1
 448 512 l 1,19,-1
 448 384 l 1,10,-1
EndSplineSet
EndChar

StartChar: bar
Encoding: 124 124 93
Width: 256
VWidth: 1024
GlyphClass: 1
Flags: W
LayerCount: 2
Fore
SplineSet
64 768 m 1,0,-1
 192 768 l 1,1,-1
 192 640 l 1,2,-1
 192 512 l 1,3,-1
 192 384 l 1,4,-1
 192 256 l 1,5,-1
 192 128 l 1,6,-1
 192 0 l 1,7,-1
 64 0 l 1,8,-1
 64 128 l 1,9,-1
 64 256 l 1,10,-1
 64 384 l 1,11,-1
 64 512 l 1,12,-1
 64 640 l 1,13,-1
 64 768 l 1,0,-1
EndSplineSet
EndChar

StartChar: asciitilde
Encoding: 126 126 94
Width: 640
VWidth: 1024
GlyphClass: 1
Flags: W
LayerCount: 2
Fore
SplineSet
448 384 m 1,0,-1
 576 384 l 1,1,-1
 576 256 l 1,2,-1
 448 256 l 1,3,-1
 448 128 l 1,4,-1
 320 128 l 1,5,-1
 320 256 l 1,6,-1
 448 256 l 1,7,-1
 448 384 l 1,0,-1
192 384 m 1,8,-1
 320 384 l 1,9,-1
 320 256 l 1,10,-1
 192 256 l 1,11,-1
 192 128 l 1,12,-1
 64 128 l 1,13,-1
 64 256 l 1,14,-1
 192 256 l 1,15,-1
 192 384 l 1,8,-1
EndSplineSet
EndChar

StartChar: degree
Encoding: 176 176 95
Width: 384
VWidth: 1024
GlyphClass: 1
Flags: W
LayerCount: 2
Fore
SplineSet
192 512 m 1,0,-1
 64 512 l 1,1,-1
 64 640 l 1,2,-1
 64 768 l 1,3,-1
 192 768 l 1,4,-1
 320 768 l 1,5,-1
 320 640 l 1,6,-1
 320 512 l 1,7,-1
 192 512 l 1,0,-1
EndSplineSet
EndChar

StartChar: multiply
Encoding: 215 215 96
Width: 512
VWidth: 1024
GlyphClass: 1
Flags: W
LayerCount: 2
Fore
SplineSet
320 512 m 1,0,-1
 448 512 l 1,1,-1
 448 384 l 1,2,-1
 320 384 l 1,3,-1
 320 256 l 1,4,-1
 448 256 l 1,5,-1
 448 128 l 1,6,-1
 320 128 l 1,7,-1
 320 256 l 1,8,-1
 192 256 l 1,9,-1
 192 128 l 1,10,-1
 64 128 l 1,11,-1
 64 256 l 1,12,-1
 192 256 l 1,13,-1
 192 384 l 1,14,-1
 320 384 l 1,15,-1
 320 512 l 1,0,-1
64 512 m 1,16,-1
 192 512 l 1,17,-1
 192 384 l 1,18,-1
 64 384 l 1,19,-1
 64 512 l 1,16,-1
EndSplineSet
EndChar

StartChar: uni20D4
Encoding: 8404 8404 97
Width: 0
VWidth: 1024
GlyphClass: 4
Flags: W
AnchorPoint: "anchor" 0 640 mark 0
LayerCount: 2
Fore
SplineSet
192 768 m 1,0,-1
 320 768 l 1,1,-1
 320 767 l 1,2,-1
 320 640 l 1,3,-1
 192 640 l 1,4,-1
 192 768 l 1,0,-1
192 768 m 1,5,-1
 64 768 l 1,6,-1
 -64 768 l 1,7,-1
 -192 768 l 1,8,-1
 -192 640 l 1,9,-1
 -320 640 l 1,10,-1
 -320 768 l 1,11,-1
 -192 768 l 1,12,-1
 -192 896 l 1,13,-1
 -64 896 l 1,14,-1
 64 896 l 1,15,-1
 192 896 l 1,16,-1
 192 768 l 1,5,-1
EndSplineSet
EndChar

StartChar: uni2115
Encoding: 8469 8469 98
Width: 640
VWidth: 1024
GlyphClass: 1
Flags: W
LayerCount: 2
Fore
SplineSet
448 768 m 1,0,-1
 576 768 l 1,1,-1
 576 640 l 1,2,-1
 576 512 l 1,3,-1
 576 384 l 1,4,-1
 576 256 l 1,5,-1
 576 128 l 1,6,-1
 576 0 l 1,7,-1
 448 0 l 1,8,-1
 448 128 l 1,9,-1
 320 128 l 1,10,-1
 320 256 l 1,11,-1
 448 256 l 1,12,-1
 448 384 l 1,13,-1
 320 384 l 1,14,-1
 320 256 l 1,15,-1
 192 256 l 1,16,-1
 192 128 l 1,17,-1
 192 0 l 1,18,-1
 64 0 l 1,19,-1
 64 128 l 1,20,-1
 64 256 l 1,21,-1
 64 384 l 1,22,-1
 64 512 l 1,23,-1
 64 640 l 1,24,-1
 64 768 l 1,25,-1
 192 768 l 1,26,-1
 192 640 l 1,27,-1
 320 640 l 1,28,-1
 320 512 l 1,29,-1
 448 512 l 1,30,-1
 448 640 l 1,31,-1
 448 768 l 1,0,-1
320 384 m 1,32,-1
 320 512 l 1,33,-1
 192 512 l 1,34,-1
 192 384 l 1,35,-1
 320 384 l 1,32,-1
EndSplineSet
EndChar

StartChar: uni25C8
Encoding: 9672 9672 99
Width: 768
VWidth: 1024
GlyphClass: 1
Flags: W
LayerCount: 2
Fore
SplineSet
320 640 m 1,0,-1
 448 640 l 1,1,-1
 448 512 l 1,2,-1
 576 512 l 1,3,-1
 576 384 l 1,4,-1
 704 384 l 1,5,-1
 704 256 l 1,6,-1
 576 256 l 1,7,-1
 576 128 l 1,8,-1
 448 128 l 1,9,-1
 448 0 l 1,10,-1
 320 0 l 1,11,-1
 320 128 l 1,12,-1
 192 128 l 1,13,-1
 192 256 l 1,14,-1
 64 256 l 1,15,-1
 64 384 l 1,16,-1
 192 384 l 1,17,-1
 192 512 l 1,18,-1
 320 512 l 1,19,-1
 320 640 l 1,0,-1
EndSplineSet
EndChar

StartChar: uni26AC
Encoding: 9900 9900 100
Width: 384
VWidth: 1024
GlyphClass: 1
Flags: W
AnchorPoint: "anchor" 384 640 basechar 0
LayerCount: 2
Fore
SplineSet
192 256 m 1,0,-1
 64 256 l 1,1,-1
 64 384 l 1,2,-1
 64 512 l 1,3,-1
 192 512 l 1,4,-1
 320 512 l 1,5,-1
 320 384 l 1,6,-1
 320 256 l 1,7,-1
 192 256 l 1,0,-1
EndSplineSet
EndChar

StartChar: uni3010
Encoding: 12304 12304 101
Width: 384
VWidth: 1024
GlyphClass: 1
Flags: W
LayerCount: 2
Fore
SplineSet
192 0 m 1,0,-1
 64 0 l 1,1,-1
 64 128 l 1,2,-1
 64 256 l 1,3,-1
 64 384 l 1,4,-1
 64 512 l 1,5,-1
 64 640 l 1,6,-1
 64 768 l 1,7,-1
 192 768 l 1,8,-1
 320 768 l 1,9,-1
 320 640 l 1,10,-1
 192 640 l 1,11,-1
 192 512 l 1,12,-1
 192 384 l 1,13,-1
 192 256 l 1,14,-1
 192 128 l 1,15,-1
 320 128 l 1,16,-1
 320 0 l 1,17,-1
 192 0 l 1,0,-1
EndSplineSet
EndChar

StartChar: uni3011
Encoding: 12305 12305 102
Width: 384
VWidth: 1024
GlyphClass: 1
Flags: W
LayerCount: 2
Fore
SplineSet
192 0 m 1,0,-1
 64 0 l 1,1,-1
 64 128 l 1,2,-1
 192 128 l 1,3,-1
 192 256 l 1,4,-1
 192 384 l 1,5,-1
 192 512 l 1,6,-1
 192 640 l 1,7,-1
 64 640 l 1,8,-1
 64 768 l 1,9,-1
 192 768 l 1,10,-1
 320 768 l 1,11,-1
 320 640 l 1,12,-1
 320 512 l 1,13,-1
 320 384 l 1,14,-1
 320 256 l 1,15,-1
 320 128 l 1,16,-1
 320 0 l 1,17,-1
 192 0 l 1,0,-1
EndSplineSet
EndChar

StartChar: uniFE3F
Encoding: 65087 65087 103
Width: 768
VWidth: 1024
GlyphClass: 1
Flags: W
LayerCount: 2
Fore
SplineSet
320 384 m 1,0,-1
 448 384 l 1,1,-1
 448 256 l 1,2,-1
 576 256 l 1,3,-1
 576 128 l 1,4,-1
 704 128 l 1,5,-1
 704 0 l 1,6,-1
 576 0 l 1,7,-1
 576 128 l 1,8,-1
 448 128 l 1,9,-1
 448 256 l 1,10,-1
 320 256 l 1,11,-1
 320 128 l 1,12,-1
 192 128 l 1,13,-1
 192 0 l 1,14,-1
 64 0 l 1,15,-1
 64 128 l 1,16,-1
 192 128 l 1,17,-1
 192 256 l 1,18,-1
 320 256 l 1,19,-1
 320 384 l 1,0,-1
EndSplineSet
EndChar

StartChar: braceleft
Encoding: 123 123 104
Width: 512
VWidth: 1024
Flags: W
LayerCount: 2
Fore
SplineSet
192 640 m 1,0,-1
 192 768 l 1,1,-1
 320 768 l 1,2,-1
 448 768 l 1,3,-1
 448 704 l 1,4,-1
 448 640 l 1,5,-1
 384 640 l 1,6,-1
 320 640 l 1,7,-1
 320 384 l 1,8,-1
 320 128 l 1,9,-1
 384 128 l 1,10,-1
 448 128 l 1,11,-1
 448 64 l 1,12,-1
 448 0 l 1,13,-1
 320 0 l 1,14,-1
 192 0 l 1,15,-1
 192 128 l 1,16,-1
 192 256 l 1,17,-1
 128 256 l 1,18,-1
 64 256 l 1,19,-1
 64 384 l 1,20,-1
 64 512 l 1,21,-1
 128 512 l 1,22,-1
 192 512 l 1,23,-1
 192 640 l 1,0,-1
EndSplineSet
EndChar

StartChar: braceright
Encoding: 125 125 105
Width: 512
VWidth: 1024
Flags: W
LayerCount: 2
Fore
SplineSet
64 704 m 1,0,-1
 64 768 l 1,1,-1
 192 768 l 1,2,-1
 320 768 l 1,3,-1
 320 640 l 1,4,-1
 320 512 l 1,5,-1
 384 512 l 1,6,-1
 448 512 l 1,7,-1
 448 384 l 1,8,-1
 448 256 l 1,9,-1
 384 256 l 1,10,-1
 320 256 l 1,11,-1
 320 128 l 1,12,-1
 320 0 l 1,13,-1
 192 0 l 1,14,-1
 64 0 l 1,15,-1
 64 64 l 1,16,-1
 64 128 l 1,17,-1
 128 128 l 1,18,-1
 192 128 l 1,19,-1
 192 384 l 1,20,-1
 192 640 l 1,21,-1
 128 640 l 1,22,-1
 64 640 l 1,23,-1
 64 704 l 1,0,-1
EndSplineSet
EndChar

StartChar: emdash
Encoding: 8212 8212 106
Width: 1025
VWidth: 1024
Flags: W
LayerCount: 2
Fore
SplineSet
64 319 m 1,0,-1
 64 383 l 1,1,-1
 512 383 l 1,2,-1
 961 383 l 1,3,-1
 961 319 l 1,4,-1
 961 255 l 1,5,6
 960 255 960 255 512 255 c 1,7,-1
 64 255 l 1,8,-1
 64 319 l 1,0,-1
EndSplineSet
EndChar

StartChar: dollar
Encoding: 36 36 107
Width: 640
Flags: W
LayerCount: 2
Fore
SplineSet
320 831 m 1,0,-1
 320 895 l 1,1,-1
 384 895 l 1,2,-1
 448 895 l 1,3,-1
 448 831 l 1,4,-1
 448 767 l 1,5,-1
 512 767 l 1,6,-1
 576 767 l 1,7,-1
 576 703 l 1,8,-1
 576 639 l 1,9,-1
 384 639 l 1,10,-1
 192 639 l 1,11,-1
 192 511 l 1,12,-1
 192 383 l 1,13,-1
 320 383 l 1,14,-1
 448 383 l 1,15,-1
 448 319 l 1,16,-1
 448 255 l 1,17,-1
 512 255 l 1,18,-1
 576 255 l 1,19,-1
 576 191 l 1,20,-1
 576 127 l 1,21,-1
 512 127 l 1,22,-1
 448 127 l 1,23,-1
 448 63 l 1,24,-1
 448 -1 l 1,25,-1
 384 -1 l 1,26,-1
 320 -1 l 1,27,28
 320 0 320 0 320 -64 c 1,29,-1
 320 -128 l 1,30,-1
 256 -128 l 1,31,-1
 192 -128 l 1,32,-1
 192 -64 l 1,33,-1
 192 -1 l 1,34,-1
 128 -1 l 1,35,-1
 64 -1 l 1,36,-1
 64 63 l 1,37,-1
 64 127 l 1,38,-1
 256 127 l 1,39,-1
 448 127 l 1,40,-1
 448 191 l 1,41,-1
 448 255 l 1,42,-1
 320 255 l 1,43,-1
 192 255 l 1,44,-1
 192 319 l 1,45,-1
 192 383 l 1,46,-1
 128 383 l 1,47,-1
 64 383 l 1,48,-1
 64 511 l 1,49,-1
 64 639 l 1,50,-1
 128 639 l 1,51,-1
 192 639 l 1,52,-1
 192 703 l 1,53,-1
 192 767 l 1,54,-1
 256 767 l 1,55,-1
 320 767 l 1,56,-1
 320 831 l 1,0,-1
EndSplineSet
EndChar

StartChar: uni0E3F
Encoding: 3647 3647 108
Width: 640
Flags: W
LayerCount: 2
Fore
SplineSet
192 831 m 1,0,-1
 192 895 l 1,1,-1
 256 895 l 1,2,-1
 320 895 l 1,3,-1
 320 831 l 1,4,-1
 320 767 l 1,5,-1
 384 767 l 1,6,-1
 448 767 l 1,7,-1
 448 703 l 1,8,-1
 448 639 l 1,9,-1
 512 639 l 1,10,-1
 576 639 l 1,11,-1
 576 511 l 1,12,-1
 576 383 l 1,13,-1
 512 383 l 1,14,-1
 448 383 l 1,15,-1
 448 319 l 1,16,-1
 448 255 l 1,17,-1
 512 255 l 1,18,-1
 576 255 l 1,19,-1
 576 191 l 1,20,-1
 576 127 l 1,21,-1
 512 127 l 1,22,-1
 448 127 l 1,23,-1
 448 63 l 1,24,-1
 448 -1 l 1,25,-1
 384 -1 l 1,26,-1
 320 -1 l 1,27,28
 320 0 320 0 320 -64 c 1,29,-1
 320 -128 l 1,30,-1
 256 -128 l 1,31,-1
 192 -128 l 1,32,-1
 192 -64 l 1,33,-1
 192 -1 l 1,34,-1
 128 -1 l 1,35,-1
 64 -1 l 1,36,-1
 64 383 l 1,37,-1
 64 767 l 1,38,-1
 128 767 l 1,39,-1
 192 767 l 1,40,-1
 192 831 l 1,0,-1
448 511 m 1,41,-1
 448 639 l 1,42,-1
 320 639 l 1,43,-1
 192 639 l 1,44,-1
 192 511 l 1,45,-1
 192 383 l 1,46,-1
 320 383 l 1,47,-1
 448 383 l 1,48,-1
 448 511 l 1,41,-1
448 191 m 1,49,-1
 448 255 l 1,50,-1
 320 255 l 1,51,-1
 192 255 l 1,52,-1
 192 191 l 1,53,-1
 192 127 l 1,54,-1
 320 127 l 1,55,-1
 448 127 l 1,56,-1
 448 191 l 1,49,-1
EndSplineSet
EndChar

StartChar: quoteleft
Encoding: 8216 8216 109
Width: 384
VWidth: 1024
Flags: W
LayerCount: 2
Fore
SplineSet
192 704 m 5,0,-1
 192 768 l 5,1,-1
 256 768 l 5,2,-1
 320 768 l 5,3,-1
 320 704 l 5,4,-1
 320 639 l 5,5,-1
 256 639 l 5,6,-1
 192 639 l 5,7,-1
 192 575 l 5,8,-1
 192 511 l 5,9,-1
 128 511 l 5,10,-1
 64 511 l 5,11,-1
 64 575 l 5,12,-1
 64 639 l 5,13,-1
 128 639 l 5,14,-1
 192 639 l 5,15,-1
 192 704 l 5,0,-1
EndSplineSet
EndChar

StartChar: quoteright
Encoding: 8217 8217 110
Width: 384
VWidth: 1024
Flags: W
LayerCount: 2
Fore
SplineSet
192 704 m 5,0,-1
 192 768 l 5,1,-1
 256 768 l 5,2,-1
 320 768 l 5,3,-1
 320 704 l 5,4,-1
 320 639 l 5,5,-1
 256 639 l 5,6,-1
 192 639 l 5,7,-1
 192 575 l 5,8,-1
 192 511 l 5,9,-1
 128 511 l 5,10,-1
 64 511 l 5,11,-1
 64 575 l 5,12,-1
 64 639 l 5,13,-1
 128 639 l 5,14,-1
 192 639 l 5,15,-1
 192 704 l 5,0,-1
EndSplineSet
EndChar

StartChar: quotedblleft
Encoding: 8220 8220 111
Width: 640
VWidth: 1024
Flags: W
LayerCount: 2
Fore
SplineSet
192 704 m 1,0,-1
 192 768 l 1,1,-1
 256 768 l 1,2,-1
 320 768 l 1,3,-1
 320 704 l 1,4,-1
 320 639 l 1,5,-1
 384 639 l 1,6,-1
 448 639 l 1,7,8
 448 640 448 640 448 704 c 1,9,-1
 448 768 l 1,10,-1
 512 768 l 1,11,-1
 576 768 l 1,12,-1
 576 704 l 1,13,-1
 576 639 l 1,14,-1
 512 639 l 1,15,-1
 448 639 l 1,16,-1
 448 575 l 1,17,-1
 448 511 l 1,18,-1
 384 511 l 1,19,-1
 320 511 l 1,20,-1
 320 575 l 1,21,-1
 320 639 l 1,22,-1
 256 639 l 1,23,-1
 192 639 l 1,24,-1
 192 575 l 1,25,-1
 192 511 l 1,26,-1
 128 511 l 1,27,-1
 64 511 l 1,28,-1
 64 575 l 1,29,-1
 64 639 l 1,30,-1
 128 639 l 1,31,-1
 192 639 l 1,32,-1
 192 704 l 1,0,-1
EndSplineSet
EndChar

StartChar: quotedblright
Encoding: 8221 8221 112
Width: 640
VWidth: 1024
Flags: W
LayerCount: 2
Fore
SplineSet
192 704 m 5,0,-1
 192 768 l 5,1,-1
 256 768 l 5,2,-1
 320 768 l 5,3,-1
 320 704 l 5,4,-1
 320 639 l 5,5,-1
 384 639 l 5,6,-1
 448 639 l 5,7,8
 448 640 448 640 448 704 c 5,9,-1
 448 768 l 5,10,-1
 512 768 l 5,11,-1
 576 768 l 5,12,-1
 576 704 l 5,13,-1
 576 639 l 5,14,-1
 512 639 l 5,15,-1
 448 639 l 5,16,-1
 448 575 l 5,17,-1
 448 511 l 5,18,-1
 384 511 l 5,19,-1
 320 511 l 5,20,-1
 320 575 l 5,21,-1
 320 639 l 5,22,-1
 256 639 l 5,23,-1
 192 639 l 5,24,-1
 192 575 l 5,25,-1
 192 511 l 5,26,-1
 128 511 l 5,27,-1
 64 511 l 5,28,-1
 64 575 l 5,29,-1
 64 639 l 5,30,-1
 128 639 l 5,31,-1
 192 639 l 5,32,-1
 192 704 l 5,0,-1
EndSplineSet
EndChar
